<?xml version="1.0" encoding="UTF-8" standalone="no"?>
<!-- Created with Inkscape (http://www.inkscape.org/) -->

<svg
   xmlns:dc="http://purl.org/dc/elements/1.1/"
   xmlns:cc="http://creativecommons.org/ns#"
   xmlns:rdf="http://www.w3.org/1999/02/22-rdf-syntax-ns#"
   xmlns:svg="http://www.w3.org/2000/svg"
   xmlns="http://www.w3.org/2000/svg"
   xmlns:sodipodi="http://sodipodi.sourceforge.net/DTD/sodipodi-0.dtd"
   xmlns:inkscape="http://www.inkscape.org/namespaces/inkscape"
   id="svg3039"
   version="1.1"
   inkscape:version="0.48.2 r9819"
   width="358.52979"
   height="92.777618"
   sodipodi:docname="hastyscribe.svg">
  <metadata
     id="metadata3045">
    <rdf:RDF>
      <cc:Work
         rdf:about="">
        <dc:format>image/svg+xml</dc:format>
        <dc:type
           rdf:resource="http://purl.org/dc/dcmitype/StillImage" />
        <dc:title />
      </cc:Work>
    </rdf:RDF>
  </metadata>
  <defs
     id="defs3043" />
  <sodipodi:namedview
     pagecolor="#ffffff"
     bordercolor="#666666"
     borderopacity="1"
     objecttolerance="10"
     gridtolerance="10"
     guidetolerance="10"
     inkscape:pageopacity="0"
     inkscape:pageshadow="2"
     inkscape:window-width="1366"
     inkscape:window-height="720"
     id="namedview3041"
     showgrid="false"
     inkscape:zoom="1.4142136"
     inkscape:cx="248.49449"
     inkscape:cy="92.117886"
     inkscape:window-x="0"
     inkscape:window-y="0"
     inkscape:window-maximized="1"
     inkscape:current-layer="svg3039"
     fit-margin-top="0"
     fit-margin-left="0"
     fit-margin-right="0"
     fit-margin-bottom="0" />
  <g
     id="g2986">
    <g
       style="font-size:64px;font-style:normal;font-variant:normal;font-weight:normal;font-stretch:normal;line-height:125%;letter-spacing:0px;word-spacing:0px;fill:#000000;fill-opacity:1;stroke:none;font-family:Mr Bedfort;-inkscape-font-specification:Mr Bedfort"
       id="text2982" />
    <g
       transform="matrix(0.61270682,0.04292477,-0.26960859,0.65185953,319.16703,-2.2445638)"
       id="g3099">
      <g
         id="g3089" />
      <path
         id="path3091"
         style="fill:#000000"
         d="m 17.016,79.048 c 1.224,-4.004 3.08,-9.644 5.564,-17.804 10.824,-1.748 15.304,1.396 22.18,-11.136 -5.58,1.744 -12.308,-3.236 -11.944,-5.392 0.36,-2.16 15.652,1.556 25.66,-12.952 C 45.86,34.6 41.82,28.352 43.448,27.408 47.204,25.228 58.356,26.504 64.3,20.596 67.364,17.556 68.796,10.16 67.552,7.52 66.052,4.336 56.924,-0.416 51.892,0.028 46.86,0.476 38.968,19.584 36.628,19.432 34.288,19.28 33.82,10.876 37.904,3.06 c -4.308,1.944 -12.2,7.996 -14.676,13.168 -4.612,9.624 0.432,31.692 -1.184,32.48 -1.62,0.784 -7.064,-10.132 -8.688,-15.08 -2.22,7.584 -2.272,15.184 4.216,25.28 -2.448,6.624 -3.784,14.248 -3.988,18.124 -0.096,3.104 2.892,3.768 3.432,2.016 z m -29.559693,-20.617281 -0.444302,-1.247092 c -0.335888,-0.763295 -1.417448,-1.084797 -3.244682,-0.964506 -1.827222,0.120354 -3.261357,0.738421 -4.302371,1.8542 -0.973322,1.111383 -1.082119,2.525802 -0.326388,4.243261 1.343554,3.053332 4.350126,4.426239 9.01972,4.118726 0.744433,-0.049 1.446869,-0.193441 2.1073309,-0.433309 0.7001367,-0.307896 1.4562601,-0.488596 2.2683716,-0.542094 0.8120982,-0.05345 1.3301128,0.174249 1.5540432,0.683112 0.027983,0.06363 -0.1727471,0.240484 -0.6021762,0.530556 -0.4574331,0.226505 -0.9942402,0.589122 -1.6104047,1.087851 -0.5484984,0.494314 -1.0748564,1.118059 -1.579058,1.871233 -1.1671568,1.778671 -1.1209458,4.099235 0.1386206,6.961699 1.2595755,2.862485 3.138849,4.996889 5.6378699,6.403213 2.4710025,1.342725 5.1615266,1.918272 8.0715894,1.726644 2.9100166,-0.191623 5.5378646,-1.182836 7.8835093,-2.973644 2.345602,-1.790796 3.864073,-4.116213 4.555427,-6.976259 l 1.21442,1.098199 C 17.073511,80.24016 14.942224,83.784097 11.403955,86.504333 7.96131,89.283724 4.3450867,90.798198 0.55528723,91.04776 -3.1668672,91.292859 -6.3649568,90.750734 -9.0389987,89.421386 c -2.6063623,-1.333808 -4.4133803,-3.145702 -5.4210383,-5.435685 -1.035646,-2.353586 -1.378243,-4.556453 -1.027795,-6.608605 0.350458,-2.052131 0.783631,-3.520638 1.299534,-4.405523 0.55559,-0.952923 0.96644,-1.601787 1.232533,-1.946595 0.305781,-0.412841 0.430694,-0.682881 0.374706,-0.810119 -0.08396,-0.190814 -0.159735,-0.284005 -0.227471,-0.279563 -1.82973,0.905949 -3.759714,1.425761 -5.789983,1.559436 -3.586784,0.236206 -5.981982,-1.013325 -7.185582,-3.748599 -1.623437,-3.689391 -0.789673,-7.016981 2.501291,-9.982776 3.29099,-2.965735 6.594521,-4.5578 9.910606,-4.776198 3.3837642,-0.222785 5.4115398,0.42913 6.0833131,1.955751 0.4198553,0.954192 0.3263048,2.007611 -0.280666,3.160263 -0.606977,1.152712 -1.350341,1.758018 -2.2301225,1.815924 -1.3535066,0.08916 -2.2681846,-0.406969 -2.7440196,-1.488378 m -27.306506,12.303457 c -0.812113,0.05349 -0.882279,0.843561 -0.210499,2.370197 0.671762,1.52667 2.112402,3.297236 4.321936,5.311699 2.249186,1.946421 4.654818,3.457081 7.216928,4.531981 -0.07222,-0.322506 -0.248365,-0.801811 -0.528273,-1.437923 -1.231609,-2.798855 -2.926458,-5.305397 -5.084582,-7.519635 -2.186149,-2.277814 -4.091308,-3.363254 -5.71551,-3.256319 M -73.360216,38.970292 c 5.598116,12.72216 11.913024,23.433455 18.944755,32.133918 -0.397442,-8.024615 -3.479177,-18.588819 -9.245219,-31.692643 -2.491145,-5.661287 -4.920649,-10.312153 -7.288548,-13.952608 -2.367859,-3.640326 -4.194713,-5.418185 -5.480566,-5.333584 -1.69186,0.11148 -2.221955,1.913637 -1.590268,5.406474 0.671418,3.424901 2.224698,7.904377 4.659846,13.438443 m 12.151939,-10.127365 c 2.743076,6.233896 4.867484,13.752088 6.373217,22.554601 1.573417,8.798135 2.230049,15.987531 1.969905,21.568208 4.561096,5.459597 8.86693,9.626912 12.917492,12.501957 4.022559,2.811444 7.150482,4.143634 9.383786,3.996571 2.233257,-0.147059 3.148316,-1.549117 2.745161,-4.206175 -3.605232,-1.071667 -7.10642,-2.935633 -10.503596,-5.591903 -3.329535,-2.660705 -5.610079,-5.390494 -6.841652,-8.189378 -0.643788,-1.463023 -0.789392,-2.664329 -0.436828,-3.603919 0.352552,-0.939545 1.23943,-1.456123 2.660619,-1.549731 3.519104,-0.231709 6.785936,0.862246 9.800478,3.281868 3.054186,2.351597 5.351037,5.276675 6.89054,8.775242 0.867677,1.971939 1.355024,3.870733 1.462027,5.696385 0.760701,0.146274 1.580944,0.190442 2.460759,0.132502 3.722107,-0.245095 6.058541,-2.689829 7.009283,-7.334206 l 1.231962,0.900682 c -0.890171,5.098564 -3.636187,7.799356 -8.238079,8.102387 -0.541428,0.03566 -1.381521,0.02553 -2.520286,-0.0304 -0.549284,4.290665 -3.226385,6.594197 -8.031316,6.910603 -5.549406,0.365424 -11.996578,-2.417264 -19.341568,-8.348068 -3.604819,-2.96985 -7.273583,-7.11366 -11.006284,-12.431448 -3.828355,-5.376903 -7.212037,-11.404918 -10.151052,-18.084062 -2.938983,-6.679071 -4.988998,-12.76218 -6.150055,-18.249346 -1.228688,-5.4826 -1.42845,-10.051206 -0.599322,-13.705827 0.829189,-3.654486 2.766456,-5.582032 5.811833,-5.782644 4.872645,-0.320787 9.240302,3.90791 13.102976,12.686103 m -32.136889,41.977554 c 0.837237,2.693947 1.633714,4.899651 2.38945,6.617121 2.659102,6.043018 5.948553,10.669983 9.868362,13.880909 3.959484,3.142863 7.698796,4.598426 11.217925,4.366697 3.586773,-0.236192 6.621908,-1.646948 9.105403,-4.232272 2.511438,-2.521712 4.310195,-6.109206 5.396283,-10.762494 l -1.214421,-1.098199 c -2.283728,7.153941 -5.658851,10.877966 -10.125413,11.172087 -2.842382,0.187171 -5.773137,-1.092549 -8.792249,-3.839163 -3.01914,-2.746603 -5.606344,-6.568912 -7.761601,-11.466942 -1.119627,-2.544404 -2.016367,-5.136229 -2.690253,-7.775481 -0.251919,-0.572469 -0.648568,-0.840892 -1.189977,-0.805266 -0.473722,0.03122 -2.404957,0.943836 -5.79372,2.737851 -0.525097,0.230962 -0.661694,0.632679 -0.409789,1.205152 m -0.601347,-21.069244 c 1.558653,1.01012 2.673855,2.278486 3.345625,3.805099 0.671773,1.526693 0.70418,2.86636 0.09721,4.019006 -0.539294,1.148262 -1.553365,1.771394 -3.042227,1.869401 -1.421169,0.09362 -2.877245,-0.366856 -4.36823,-1.381424 -1.490953,-1.014498 -2.572321,-2.285092 -3.244111,-3.811783 -0.67175,-1.526615 -0.73799,-2.864054 -0.19872,-4.012322 0.53931,-1.148183 1.519551,-1.769087 2.940715,-1.862717 1.488868,-0.09799 2.978776,0.360251 4.469742,1.37474 m -27.771957,28.730278 -1.97074,0.03159 c -0.67675,0.04458 -1.02453,0.362024 -1.04331,0.952328 0.0276,1.961809 -0.30655,4.209239 -1.00247,6.742297 l -1.27395,-0.996098 c 0.59777,-1.806602 0.69506,-4.038434 0.29188,-6.695505 -0.22392,-0.508868 -0.61474,-0.843127 -1.17244,-1.002782 -3.46524,-0.753603 -6.09356,-3.16595 -7.88496,-7.23705 -0.39185,-0.890523 0.0564,-1.770937 1.34469,-2.641244 1.26034,-0.933864 2.43191,-1.436461 3.51471,-1.507792 1.0828,-0.07127 1.82015,0.33835 2.21201,1.228869 2.09929,4.770818 5.51757,7.000241 10.25484,6.688271 1.15047,-0.07574 2.0221,-0.23132 2.6149,-0.466732 0.63246,-0.303441 0.98253,-0.4574 1.05021,-0.461879 0.67674,-0.04454 1.22506,0.410255 1.64492,1.364392 0.39186,0.890569 0.40106,1.5445 0.0276,1.961796 -0.33379,0.349266 -0.55329,1.116438 -0.65854,2.301519 -0.13325,1.121504 0.12202,2.413768 0.76582,3.876798 1.25956,2.862488 3.133,5.062728 5.62032,6.60073 2.52699,1.469947 5.11016,2.118018 7.749513,1.944214 2.706991,-0.178252 5.058274,-1.0858 7.053863,-2.72265 1.99553,-1.636836 3.372798,-3.887501 4.131832,-6.752004 l 1.214421,1.098199 c -0.661259,4.03623 -2.571978,7.369281 -5.732169,9.999166 -3.160254,2.629889 -6.398415,4.054015 -9.71448,4.272381 -6.76755,0.445638 -11.4249,-2.225821 -13.97201,-8.014387 -0.47586,-1.081373 -0.71358,-2.571154 -0.71319,-4.469348 3.7e-4,-1.898171 0.12671,-3.510107 0.37901,-4.83581 l 0.37844,-1.988534 c -0.11197,-0.254424 -0.26944,-0.374962 -0.47248,-0.361609 -1.94169,0.651506 -3.48777,1.015131 -4.63825,1.090873 m -32.72414,-5.208674 c -0.83972,-1.908292 -2.54542,-2.777778 -5.11707,-2.608463 -2.57167,0.169371 -4.22761,1.391127 -4.96781,3.665272 -0.74021,2.274192 -0.36856,5.096956 1.11493,8.4683 1.45551,3.307762 4.13856,6.240136 8.04917,8.797127 3.95027,2.488937 8.66627,3.552917 14.148,3.191946 3.45141,-0.227273 6.46546,-1.211191 9.04214,-2.951759 2.61629,-1.80862 4.38918,-4.347152 5.31864,-7.6156 l 1.21442,1.098199 c -0.61698,4.295129 -2.95943,7.754791 -7.02739,10.378999 -4.00035,2.619756 -8.57218,4.098976 -13.71548,4.437668 -5.07568,0.33422 -9.68555,-0.409476 -13.82966,-2.231106 -4.04844,-1.762476 -6.89839,-4.520226 -8.54983,-8.273255 -2.09928,-4.770783 -2.09018,-9.418595 0.0273,-13.943452 2.18515,-4.529268 6.28929,-6.992224 12.3124,-7.388873 2.09793,-0.138119 3.87838,0.268269 5.34138,1.219163 1.43497,0.88734 2.51634,2.157933 3.24411,3.811783 0.69974,1.590288 0.79042,3.22066 0.27205,4.891118 -0.54639,1.606888 -1.59786,2.461572 -3.15438,2.564051 -0.81211,0.05349 -1.78402,-0.177047 -2.9157,-0.691628 -1.09202,-0.58261 -1.72199,-1.064756 -1.88993,-1.446439 -0.19594,-0.445254 -0.18069,-0.806254 0.0457,-1.082998 0.19841,-0.340314 0.4785,-0.6533 0.84028,-0.938959 0.85887,-0.580164 0.92444,-1.697196 0.1967,-3.351094 m -90.17717,-33.334123 c 2.68711,6.106673 9.04974,11.545803 19.08794,16.317402 -0.21991,-8.887177 -1.44948,-15.875211 -3.68873,-20.964121 -0.97965,-2.226303 -2.66761,-4.242397 -5.06387,-6.048288 -2.39624,-1.805746 -4.57566,-2.644038 -6.53825,-2.514878 -1.8949,0.124855 -3.20075,1.19265 -3.9176,3.203393 -0.64912,2.006429 -0.89222,3.986048 -0.72928,5.938862 0.20268,1.884879 0.48594,3.240754 0.84979,4.06763 m 14.178,63.080172 c -0.27779,0.47647 -0.58587,0.72584 -0.92426,0.74813 -0.5414,0.0357 -0.92405,-0.20097 -1.14799,-0.70985 -0.22391,-0.50889 -0.27056,-0.93126 -0.13976,-1.26715 1.64587,-3.381063 3.11938,-8.419848 4.42054,-15.116369 1.30116,-6.69649 2.15198,-13.625155 2.55246,-20.786018 -11.1536,-5.090882 -18.03194,-10.594233 -20.63508,-16.510066 -1.73539,-3.9438 -2.51749,-8.015884 -2.34632,-12.216258 0.2389,-4.204703 1.42858,-7.752089 3.56904,-10.642171 2.20819,-2.894387 4.83497,-4.441888 7.88035,-4.642506 3.11307,-0.204915 5.51891,0.356652 7.2175,1.684704 1.73829,1.26014 3.18122,3.194188 4.32883,5.802149 2.15527,4.898083 3.03899,14.265225 2.65118,28.101451 2.84908,1.252415 6.58254,2.773818 11.20038,4.564213 4.65751,1.722409 8.62784,3.228214 11.91098,4.517421 3.35077,1.284822 6.79954,2.792245 10.34629,4.522275 7.31274,3.642071 12.00479,7.81668 14.07612,12.523842 2.04326,4.643587 1.38893,9.170254 -1.96295,13.58001 -3.37997,4.346153 -7.70927,6.693033 -12.98792,7.040633 -8.32409,0.54813 -17.52593,-3.03496 -27.60554,-10.749307 -1.16429,-0.905129 -1.88639,-1.675751 -2.16629,-2.311868 -0.3079,-0.699704 0.1042,-1.741374 1.23627,-3.125008 1.10408,-1.447217 2.12985,-2.202029 3.07731,-2.264434 0.20302,-0.01335 0.4142,0.07092 0.63353,0.252825 3.14277,2.869388 7.82455,5.833781 14.04534,8.893184 6.22075,3.059418 11.59825,4.439833 16.13254,4.141251 5.44908,-0.751542 7.10999,-3.544514 4.98276,-8.378927 -1.79144,-4.071063 -5.94101,-7.725038 -12.44875,-10.961933 -4.8021,-2.367364 -10.5061,-4.806267 -17.11201,-7.316715 -6.63393,-2.574 -11.24592,-4.430275 -13.83599,-5.568828 -1.07914,16.696337 -3.39533,28.761434 -6.94856,36.19532 m -2.30376,31.37315 c 2.32318,5.27965 6.16448,10.13209 11.52392,14.55734 5.35935,4.42516 9.46023,6.54418 12.30265,6.35706 2.43624,-0.16048 2.7587,-2.27623 0.96738,-6.34726 -1.31562,-2.98974 -4.51524,-7.49171 -9.5989,-13.50593 -1.88749,-2.23208 -4.70465,-5.54834 -8.45149,-9.9488 -3.71893,-4.3369 -6.68774,-7.83954 -8.90642,-10.50793 -1.52512,6.18761 -0.80416,12.65278 2.16286,19.39552 m 25.56578,5.87642 c 2.743,6.23379 3.66966,10.95089 2.77999,14.15131 -0.86183,3.26393 -3.01841,5.00956 -6.4698,5.23689 -4.39895,0.28961 -9.43914,-1.66938 -15.12057,-5.87696 -5.58586,-4.14853 -9.82027,-9.49872 -12.70326,-16.05057 -1.51362,-4.54758 -2.06117,-8.79874 -1.64263,-12.7535 0.48615,-3.95926 1.62694,-8.09251 3.42238,-12.39977 -4.9041,-5.76427 -8.55178,-10.33492 -10.94302,-13.711958 -1.37059,3.690208 -3.95078,5.660098 -7.74058,5.909648 -3.78984,0.24956 -7.90365,-1.34498 -12.34147,-4.783612 -4.43783,-3.438627 -8.15423,-8.561108 -11.14922,-15.367456 -0.30788,-0.699695 0.0236,-1.212426 0.99443,-1.538193 2.96852,-0.849991 4.68964,-1.290595 5.16336,-1.321812 0.81212,-0.05345 1.38609,0.301472 1.72199,1.064775 2.54712,5.788582 5.93579,10.24538 10.16599,13.370407 2.65524,1.91968 5.30255,2.792615 7.9419,2.618809 1.42117,-0.09358 2.64411,-0.795919 3.66885,-2.107025 -2.89051,-4.195052 -4.96554,-7.723819 -6.2251,-10.586313 -1.28757,-2.926066 -1.51466,-5.103812 -0.68127,-6.533243 2.21026,-1.781864 3.48459,-2.683948 3.82298,-2.706259 0.67674,-0.04453 1.22504,0.410261 1.64492,1.364393 3.05094,6.933577 7.62335,14.15966 13.71725,21.678275 l 3.95096,4.943404 c 2.80838,-5.486682 4.72054,-10.16163 5.73648,-14.024856 l 1.21442,1.098199 c -0.56062,2.524166 -1.18176,4.594135 -1.86346,6.209909 -0.68178,1.615788 -1.43703,3.301868 -2.26578,5.058238 -0.76114,1.75191 -1.24675,2.86388 -1.45683,3.33589 10.79026,12.96929 16.92612,20.58332 18.40755,22.84213 2.93471,4.45393 5.0179,8.08035 6.24954,10.87925 M -316.51911,60.185813 c 14.23833,29.8257 25.72256,44.451087 34.4527,43.876207 3.72212,-0.2451 6.81716,-3.65613 9.28512,-10.233124 l 1.21443,1.098198 c -2.44284,9.324386 -6.5743,14.178206 -12.39436,14.561456 -5.75242,0.37879 -12.2414,-3.4484 -19.46695,-11.481591 -7.25354,-8.096783 -14.0188,-19.040237 -20.29578,-32.830399 -6.57234,4.687321 -10.12922,7.048786 -10.67065,7.084403 -0.87975,0.05797 -1.51557,-0.358339 -1.90747,-1.248923 -0.39184,-0.890512 -0.226,-1.621423 0.49749,-2.192735 l 10.35922,-7.554797 c -1.99196,-4.843266 -3.77035,-9.438825 -5.33536,-13.786684 -0.25188,-0.572436 -0.11529,-0.974152 0.40979,-1.205153 3.38878,-1.793976 5.32002,-2.706592 5.79372,-2.73785 0.54143,-0.03559 0.93809,0.232833 1.18998,0.805266 1.26425,3.189499 2.47009,6.088238 3.61768,8.696217 l 1.34354,3.053309 4.10308,-3.019245 c 11.11658,-8.128238 16.84407,-12.203526 17.18244,-12.225874 0.40605,-0.02667 0.75257,0.04869 1.03958,0.226087 2.10463,1.301458 3.19895,2.047567 3.28293,2.238336 0.084,0.190895 -0.007,0.458707 -0.27319,0.803435 -0.2941,0.281243 -1.48091,1.14484 -3.56044,2.590789 -2.03984,1.378004 -5.13344,3.447148 -9.28082,6.207437 -4.07969,2.755942 -7.60857,5.181017 -10.58668,7.275235 m 11.58513,35.760328 1.21443,1.098199 c -0.96704,4.44909 -2.95712,7.91827 -5.97028,10.40757 -2.98521,2.55291 -6.2712,3.94746 -9.85798,4.18365 -7.24128,0.47683 -13.33379,-2.13285 -18.27755,-7.82905 -0.13995,-0.31805 0.17647,-1.41887 0.94927,-3.30247 0.7728,-1.883587 1.39607,-2.84098 1.86979,-2.872187 0.54141,-0.03564 0.91592,0.103333 1.12355,0.416919 1.30175,2.008808 3.37007,4.098038 6.20496,6.267688 2.90256,2.16521 5.13211,3.19656 6.68866,3.09406 2.4363,-0.16043 3.40838,-0.87898 2.91627,-2.15565 -0.86772,-1.97192 -4.65342,-4.79896 -11.35712,-8.481119 -2.49901,-1.406318 -5.0446,-3.235029 -7.63679,-5.48614 -2.55249,-2.319142 -4.38854,-4.750932 -5.50817,-7.29538 -0.22392,-0.508859 -0.27635,-0.865402 -0.15731,-1.069629 1.85811,-2.740476 3.26089,-4.141924 4.20834,-4.204344 0.74443,-0.04899 1.35456,0.467189 1.8304,1.54854 1.10332,2.349163 3.22992,4.729094 6.37981,7.139803 3.18956,2.342684 6.26946,4.594388 9.23971,6.755116 3.03791,2.156303 5.06069,4.379436 6.06837,6.669403 0.97965,2.22638 0.67703,4.3081 -0.90786,6.24517 5.49338,-0.49264 9.15322,-4.20269 10.9795,-11.130149 m -65.2626,-10.625936 c 0.0351,-0.395006 1.77834,-0.706161 5.22979,-0.933464 3.5191,-0.231706 5.48859,0.129507 5.90847,1.083639 0.0839,0.190857 0.0489,0.58589 -0.10525,1.185098 -1.02511,3.209307 -0.80991,6.467821 0.64562,9.775553 1.45548,3.307764 3.47117,5.989539 6.04708,8.045339 2.61555,1.98774 5.20916,2.89694 7.78086,2.72759 4.19584,-0.27629 7.2278,-3.35591 9.0959,-9.238858 l 1.21443,1.098199 c -1.80791,8.235319 -5.89258,12.562429 -12.25403,12.981329 -4.80498,0.3164 -9.51494,-1.76251 -14.12988,-6.23674 -0.41106,1.59796 -1.54083,3.14506 -3.38933,4.64131 -1.84852,1.49626 -3.85559,2.31569 -6.02119,2.45829 -5.88776,0.38771 -9.85329,-1.74022 -11.8966,-6.3838 -1.59545,-3.62579 -1.63668,-7.517576 -0.12367,-11.675354 1.55269,-4.225811 3.91941,-6.443451 7.10016,-6.652925 0.27069,-0.0178 0.44803,0.06869 0.532,0.259509 0.084,0.190855 0.0466,0.422405 -0.11215,0.69465 -1.11329,0.793324 -1.68766,2.336581 -1.72313,4.629778 0.004,2.225166 0.51016,4.482731 1.51782,6.772702 2.0433,4.64358 4.95987,6.84058 8.7497,6.59102 1.08279,-0.0713 1.98596,-0.39259 2.7095,-0.96387 0.7632,-0.63933 1.0224,-1.47457 0.7776,-2.50572 -1.85947,-2.16842 -3.32101,-4.461243 -4.38463,-6.878458 -1.06365,-2.417185 -1.85783,-4.459407 -2.38255,-6.126672 -0.99808,-3.53421 -1.26026,-5.316923 -0.78652,-5.348145 m -82.79255,11.83361 -5.10212,-7.322119 c -5.70773,-1.260463 -11.62079,-2.671066 -17.73921,-4.231814 -0.0676,0.0045 -0.0875,0.03851 -0.0595,0.1021 0.65549,1.331397 8.28911,5.148671 22.90085,11.451833 m 6.73926,-4.861908 c 3.81666,5.508625 6.25806,9.078723 7.3242,10.710303 20.16533,8.16291 32.52913,12.12688 37.09142,11.89191 l -13.58496,-18.0543 c -9.79628,-1.056696 -20.07316,-2.572666 -30.83066,-4.547913 m -29.16971,-48.249501 2.28103,6.133357 c 2.60314,5.915846 9.89915,17.511616 21.88807,34.787341 9.91741,1.965122 20.12076,3.551386 30.61009,4.758799 -7.11324,-9.676894 -12.88023,-18.035211 -17.30098,-25.074972 -4.44877,-7.103267 -8.46453,-14.726002 -12.04731,-22.868227 -0.17255,-0.708553 0.65729,-1.908638 2.48951,-3.600256 1.8719,-1.759529 3.34925,-2.674983 4.43207,-2.746367 0.54139,-0.03557 0.96604,0.296462 1.27394,0.996098 l 2.43144,6.712537 c 4.53444,10.304982 14.4304,26.14767 29.68791,47.528112 8.48948,0.619162 16.22767,0.796867 23.21459,0.53312 0.47366,-0.03117 0.80849,0.17587 1.00449,0.621119 0.16787,0.381688 -0.90113,1.433888 -3.20701,3.1566 -2.306,1.722758 -3.72968,2.60195 -4.27102,2.637582 -3.1808,0.20947 -7.08258,0.204587 -11.70535,-0.01465 l 9.83701,13.097532 c 0.47578,1.08138 -1.11497,3.08429 -4.77226,6.00873 -5.41408,0.35651 -17.98444,-3.36477 -37.71113,-11.16385 2.2442,3.51764 4.02179,6.60782 5.33276,9.27055 -0.0794,0.13613 -1.15299,0.86137 -3.22081,2.1757 -2.06785,1.31433 -3.27096,1.98264 -3.60932,2.00492 -0.87979,0.0579 -1.58559,-0.5174 -2.1174,-1.726 -3.26818,-6.00289 -6.73708,-11.82894 -10.4067,-17.478143 -8.75026,-3.743726 -16.31744,-7.172651 -22.70157,-10.286787 -6.41208,-3.177691 -9.78607,-5.148214 -10.12199,-5.911575 -0.44781,-1.017735 1.01573,-2.914086 4.39065,-5.689059 l 0.22057,-0.210886 c 5.49764,1.732542 10.81562,3.215058 15.95396,4.447554 -9.93142,-13.549438 -15.98876,-22.804986 -18.17204,-27.766672 -0.97964,-2.226306 -1.47868,-3.993422 -1.49711,-5.301351 0.0514,-0.199677 1.1484,-1.188266 3.29097,-2.965769 2.14263,-1.777362 3.41696,-2.679447 3.82299,-2.706259 0.27072,-0.01775 0.50404,0.195972 0.69995,0.641173" />
    </g>
  </g>
</svg>
