<?xml version="1.0" encoding="UTF-8" standalone="no"?>
<!-- Created with Inkscape (http://www.inkscape.org/) -->

<svg
   xmlns:dc="http://purl.org/dc/elements/1.1/"
   xmlns:cc="http://creativecommons.org/ns#"
   xmlns:rdf="http://www.w3.org/1999/02/22-rdf-syntax-ns#"
   xmlns:svg="http://www.w3.org/2000/svg"
   xmlns="http://www.w3.org/2000/svg"
   xmlns:sodipodi="http://sodipodi.sourceforge.net/DTD/sodipodi-0.dtd"
   xmlns:inkscape="http://www.inkscape.org/namespaces/inkscape"
   width="350.7547"
   height="102.312"
   id="svg2"
   version="1.1"
   inkscape:version="0.48.2 r9819"
   sodipodi:docname="hastyscribe.svg">
  <defs
     id="defs4">
    <inkscape:path-effect
       effect="skeletal"
       id="path-effect3615"
       is_visible="true"
       pattern="m 109.248,2.090991 c 0,1.154821 -24.456,2.09099 -54.624,2.09099 C 24.45599,4.181981 0,3.245812 0,2.090991 0,0.936169 24.45599,0 54.624,0 c 30.168,0 54.624,0.936169 54.624,2.090991 z"
       copytype="single_stretched"
       prop_scale="1"
       scale_y_rel="false"
       spacing="0"
       normal_offset="0"
       tang_offset="0"
       prop_units="false"
       vertical_pattern="false"
       fuse_tolerance="0" />
    <inkscape:path-effect
       effect="skeletal"
       id="path-effect3594"
       is_visible="true"
       pattern="m 109.248,1.215991 c 0,0.671572 -24.456,1.21599 -54.624,1.21599 C 24.45599,2.431981 0,1.887563 0,1.215991 0,0.544418 24.45599,0 54.624,0 c 30.168,0 54.624,0.544418 54.624,1.215991 z"
       copytype="single_stretched"
       prop_scale="1"
       scale_y_rel="false"
       spacing="0"
       normal_offset="0"
       tang_offset="0"
       prop_units="false"
       vertical_pattern="false"
       fuse_tolerance="0" />
    <inkscape:path-effect
       effect="skeletal"
       id="path-effect3539"
       is_visible="true"
       pattern="m 109.248,1.590991 c 0,0.878679 -24.456,1.59099 -54.624,1.59099 C 24.45599,3.181981 0,2.46967 0,1.590991 0,0.712311 24.45599,0 54.624,0 c 30.168,0 54.624,0.712311 54.624,1.590991 z"
       copytype="single_stretched"
       prop_scale="1"
       scale_y_rel="false"
       spacing="0"
       normal_offset="0"
       tang_offset="0"
       prop_units="false"
       vertical_pattern="false"
       fuse_tolerance="0" />
    <inkscape:path-effect
       effect="skeletal"
       id="path-effect3529"
       is_visible="true"
       pattern="m 109.248,1.590991 c 0,0.878679 -24.456,1.59099 -54.624,1.59099 C 24.45599,3.181981 0,2.46967 0,1.590991 0,0.712311 24.45599,0 54.624,0 c 30.168,0 54.624,0.712311 54.624,1.590991 z"
       copytype="single_stretched"
       prop_scale="1"
       scale_y_rel="false"
       spacing="0"
       normal_offset="0"
       tang_offset="0"
       prop_units="false"
       vertical_pattern="false"
       fuse_tolerance="0" />
    <inkscape:path-effect
       effect="skeletal"
       id="path-effect3485"
       is_visible="true"
       pattern="m 95.81296,3.00521 c 0,1.65973 -21.44846,3.0052 -47.90648,3.0052 C 21.44846,6.01041 0,4.66494 0,3.00521 0,1.34548 21.44846,0 47.90648,0 74.3645,0 95.81296,1.34548 95.81296,3.00521 z"
       copytype="single_stretched"
       prop_scale="1"
       scale_y_rel="false"
       spacing="0"
       normal_offset="0"
       tang_offset="0"
       prop_units="false"
       vertical_pattern="false"
       fuse_tolerance="0" />
    <inkscape:path-effect
       effect="skeletal"
       id="path-effect3475"
       is_visible="true"
       pattern="m 95.81296,3.00521 c 0,1.65973 -21.44846,3.0052 -47.90648,3.0052 C 21.44846,6.01041 0,4.66494 0,3.00521 0,1.34548 21.44846,0 47.90648,0 74.3645,0 95.81296,1.34548 95.81296,3.00521 z"
       copytype="single_stretched"
       prop_scale="1"
       scale_y_rel="false"
       spacing="0"
       normal_offset="0"
       tang_offset="0"
       prop_units="false"
       vertical_pattern="false"
       fuse_tolerance="0" />
    <inkscape:path-effect
       effect="skeletal"
       id="path-effect3465"
       is_visible="true"
       pattern="m 95.81296,3.00521 c 0,1.65973 -21.44846,3.0052 -47.90648,3.0052 C 21.44846,6.01041 0,4.66494 0,3.00521 0,1.34548 21.44846,0 47.90648,0 74.3645,0 95.81296,1.34548 95.81296,3.00521 z"
       copytype="single_stretched"
       prop_scale="1"
       scale_y_rel="false"
       spacing="0"
       normal_offset="0"
       tang_offset="0"
       prop_units="false"
       vertical_pattern="false"
       fuse_tolerance="0" />
    <inkscape:path-effect
       effect="skeletal"
       id="path-effect3455"
       is_visible="true"
       pattern="m 95.81296,3.00521 c 0,1.65973 -21.44846,3.0052 -47.90648,3.0052 C 21.44846,6.01041 0,4.66494 0,3.00521 0,1.34548 21.44846,0 47.90648,0 74.3645,0 95.81296,1.34548 95.81296,3.00521 z"
       copytype="single_stretched"
       prop_scale="1"
       scale_y_rel="false"
       spacing="0"
       normal_offset="0"
       tang_offset="0"
       prop_units="false"
       vertical_pattern="false"
       fuse_tolerance="0" />
    <inkscape:path-effect
       effect="skeletal"
       id="path-effect3445"
       is_visible="true"
       pattern="m 95.81296,3.00521 c 0,1.65973 -21.44846,3.0052 -47.90648,3.0052 C 21.44846,6.01041 0,4.66494 0,3.00521 0,1.34548 21.44846,0 47.90648,0 74.3645,0 95.81296,1.34548 95.81296,3.00521 z"
       copytype="single_stretched"
       prop_scale="1"
       scale_y_rel="false"
       spacing="0"
       normal_offset="0"
       tang_offset="0"
       prop_units="false"
       vertical_pattern="false"
       fuse_tolerance="0" />
    <inkscape:path-effect
       effect="skeletal"
       id="path-effect3435"
       is_visible="true"
       pattern="m 95.81296,3.00521 c 0,1.65973 -21.44846,3.0052 -47.90648,3.0052 C 21.44846,6.01041 0,4.66494 0,3.00521 0,1.34548 21.44846,0 47.90648,0 74.3645,0 95.81296,1.34548 95.81296,3.00521 z"
       copytype="single_stretched"
       prop_scale="1"
       scale_y_rel="false"
       spacing="0"
       normal_offset="0"
       tang_offset="0"
       prop_units="false"
       vertical_pattern="false"
       fuse_tolerance="0" />
    <inkscape:path-effect
       effect="skeletal"
       id="path-effect3425"
       is_visible="true"
       pattern="m 95.81296,3.00521 c 0,1.65973 -21.44846,3.0052 -47.90648,3.0052 C 21.44846,6.01041 0,4.66494 0,3.00521 0,1.34548 21.44846,0 47.90648,0 74.3645,0 95.81296,1.34548 95.81296,3.00521 z"
       copytype="single_stretched"
       prop_scale="1"
       scale_y_rel="false"
       spacing="0"
       normal_offset="0"
       tang_offset="0"
       prop_units="false"
       vertical_pattern="false"
       fuse_tolerance="0" />
    <inkscape:path-effect
       effect="skeletal"
       id="path-effect3405"
       is_visible="true"
       pattern="m 95.81296,3.00521 c 0,1.65973 -21.44846,3.0052 -47.90648,3.0052 C 21.44846,6.01041 0,4.66494 0,3.00521 0,1.34548 21.44846,0 47.90648,0 74.3645,0 95.81296,1.34548 95.81296,3.00521 z"
       copytype="single_stretched"
       prop_scale="1"
       scale_y_rel="false"
       spacing="0"
       normal_offset="0"
       tang_offset="0"
       prop_units="false"
       vertical_pattern="false"
       fuse_tolerance="0" />
    <inkscape:path-effect
       effect="skeletal"
       id="path-effect3395"
       is_visible="true"
       pattern="m 95.81296,3.00521 c 0,1.65973 -21.44846,3.0052 -47.90648,3.0052 C 21.44846,6.01041 0,4.66494 0,3.00521 0,1.34548 21.44846,0 47.90648,0 74.3645,0 95.81296,1.34548 95.81296,3.00521 z"
       copytype="single_stretched"
       prop_scale="1"
       scale_y_rel="false"
       spacing="0"
       normal_offset="0"
       tang_offset="0"
       prop_units="false"
       vertical_pattern="false"
       fuse_tolerance="0" />
    <inkscape:path-effect
       effect="skeletal"
       id="path-effect3385"
       is_visible="true"
       pattern="m 96.696843,1.7677731 c 0,1.65973 -21.44846,3.0052 -47.90648,3.0052 -26.45802,0 -47.90647952,-1.34547 -47.90647952,-3.0052 0,-1.65972997 21.44845952,-3.00521 47.90647952,-3.00521 26.45802,0 47.90648,1.34548003 47.90648,3.00521 z"
       copytype="single_stretched"
       prop_scale="1"
       scale_y_rel="false"
       spacing="0"
       normal_offset="0"
       tang_offset="0"
       prop_units="false"
       vertical_pattern="false"
       fuse_tolerance="0" />
    <inkscape:path-effect
       effect="skeletal"
       id="path-effect3306"
       is_visible="true"
       pattern="m 214.5,3.2500001 c 0,1.7949249 -48.01746,3.25 -107.25,3.25 C 48.01746,6.5000001 0,5.044925 0,3.2500001 0,1.4550742 48.01746,0 107.25,0 166.48254,0 214.5,1.4550742 214.5,3.2500001 z"
       copytype="single_stretched"
       prop_scale="1"
       scale_y_rel="false"
       spacing="0"
       normal_offset="0"
       tang_offset="0"
       prop_units="false"
       vertical_pattern="false"
       fuse_tolerance="0" />
    <inkscape:path-effect
       effect="skeletal"
       id="path-effect3284"
       is_visible="true"
       pattern="m 175.00892,1.944544 c 0,1.073941 -39.17708,1.944543 -87.50446,1.944543 C 39.17708,3.889087 0,3.018485 0,1.944544 0,0.870602 39.17708,0 87.50446,0 c 48.32738,0 87.50446,0.870602 87.50446,1.944544 z"
       copytype="single_stretched"
       prop_scale="1"
       scale_y_rel="false"
       spacing="0"
       normal_offset="0"
       tang_offset="0"
       prop_units="false"
       vertical_pattern="false"
       fuse_tolerance="0" />
    <inkscape:path-effect
       effect="skeletal"
       id="path-effect3272"
       is_visible="true"
       pattern="m 175.00892,1.944544 c 0,1.073941 -39.17708,1.944543 -87.50446,1.944543 C 39.17708,3.889087 0,3.018485 0,1.944544 0,0.870602 39.17708,0 87.50446,0 c 48.32738,0 87.50446,0.870602 87.50446,1.944544 z"
       copytype="single_stretched"
       prop_scale="1"
       scale_y_rel="false"
       spacing="0"
       normal_offset="0"
       tang_offset="0"
       prop_units="false"
       vertical_pattern="false"
       fuse_tolerance="0" />
    <inkscape:path-effect
       effect="skeletal"
       id="path-effect3196"
       is_visible="true"
       pattern="M 0,0 1,0"
       copytype="single_stretched"
       prop_scale="1"
       scale_y_rel="false"
       spacing="0"
       normal_offset="0"
       tang_offset="0"
       prop_units="false"
       vertical_pattern="false"
       fuse_tolerance="0" />
    <inkscape:path-effect
       effect="skeletal"
       id="path-effect3192"
       is_visible="true"
       pattern="M 0,0 1,0"
       copytype="single_stretched"
       prop_scale="1"
       scale_y_rel="false"
       spacing="0"
       normal_offset="0"
       tang_offset="0"
       prop_units="false"
       vertical_pattern="false"
       fuse_tolerance="0" />
    <inkscape:path-effect
       effect="skeletal"
       id="path-effect3163"
       is_visible="true"
       pattern="m 94.896651,1.5881911 c 0,1.577954 -21.18652,2.857142 -47.32143,2.857142 -26.1349,0 -47.32143066,-1.279188 -47.32143066,-2.857142 0,-1.57795602 21.18653066,-2.857143 47.32143066,-2.857143 26.13491,0 47.32143,1.27918698 47.32143,2.857143 z"
       copytype="single_stretched"
       prop_scale="1"
       scale_y_rel="false"
       spacing="0"
       normal_offset="0"
       tang_offset="0"
       prop_units="false"
       vertical_pattern="false"
       fuse_tolerance="0" />
    <inkscape:path-effect
       effect="skeletal"
       id="path-effect3141"
       is_visible="true"
       pattern="m 94.64286,2.857143 c 0,1.577954 -21.18652,2.857142 -47.32143,2.857142 C 21.18653,5.714285 0,4.435097 0,2.857143 0,1.279187 21.18653,0 47.32143,0 73.45634,0 94.64286,1.279187 94.64286,2.857143 z"
       copytype="single_stretched"
       prop_scale="1"
       scale_y_rel="false"
       spacing="0"
       normal_offset="0"
       tang_offset="0"
       prop_units="false"
       vertical_pattern="false"
       fuse_tolerance="0" />
  </defs>
  <sodipodi:namedview
     id="base"
     pagecolor="#ffffff"
     bordercolor="#666666"
     borderopacity="1.0"
     inkscape:pageopacity="0.0"
     inkscape:pageshadow="2"
     inkscape:zoom="2.8284271"
     inkscape:cx="176.24123"
     inkscape:cy="60.011188"
     inkscape:document-units="px"
     inkscape:current-layer="layer1"
     showgrid="false"
     inkscape:window-width="1366"
     inkscape:window-height="720"
     inkscape:window-x="0"
     inkscape:window-y="0"
     inkscape:window-maximized="1"
     fit-margin-top="0"
     fit-margin-left="0"
     fit-margin-right="0"
     fit-margin-bottom="0" />
  <metadata
     id="metadata7">
    <rdf:RDF>
      <cc:Work
         rdf:about="">
        <dc:format>image/svg+xml</dc:format>
        <dc:type
           rdf:resource="http://purl.org/dc/dcmitype/StillImage" />
        <dc:title></dc:title>
      </cc:Work>
    </rdf:RDF>
  </metadata>
  <g
     inkscape:label="Layer 1"
     inkscape:groupmode="layer"
     id="layer1"
     transform="translate(-177.38916,-82.362228)">
    <g
       style="font-size:40px;font-style:normal;font-variant:normal;font-weight:normal;font-stretch:normal;line-height:125%;letter-spacing:0px;word-spacing:0px;fill:#000000;fill-opacity:1;stroke:none;font-family:Mr Bedfort;-inkscape-font-specification:Mr Bedfort"
       id="text2985"
       transform="translate(2.4748737,-3.8890873)">
      <path
         d="m 192.26629,131.03531 -1.296,-5.616 c -3.552,-1.19997 -7.19999,-2.51997 -10.944,-3.96 -0.048,3e-5 -0.072,0.024 -0.072,0.072 0.048,1.00803 4.15201,4.17602 12.312,9.504 m 6.12,-3.24 c 0.95999,4.22402 1.55999,6.96002 1.8,8.208 11.42398,6.96001 18.74397,10.464 21.96,10.512 l -3.888,-13.896 c -6.43202,-1.24798 -13.05602,-2.85598 -19.872,-4.824 m -5.472,-36.791995 -0.288,4.608 c 0,4.464045 1.512,13.320035 4.536,26.567995 6.23999,1.92003 12.79198,3.57602 19.656,4.968 -1.96802,-7.43997 -3.40802,-13.84796 -4.32,-19.224 -0.91202,-5.42395 -1.36802,-11.207947 -1.368,-17.351995 0.096,-0.527945 1.03198,-1.367944 2.808,-2.52 1.82397,-1.199942 3.11997,-1.799941 3.888,-1.8 0.38397,5.9e-5 0.57597,0.264058 0.576,0.792 l -0.36,5.04 c -3e-5,7.776045 2.01597,19.872035 6.048,36.287995 5.66396,0.86402 10.94396,1.36802 15.84,1.512 0.33595,2e-5 0.50395,0.16802 0.504,0.504 -5e-5,0.28802 -1.05605,1.00802 -3.168,2.16 -2.11205,1.15202 -3.36004,1.72802 -3.744,1.728 -2.25604,2e-5 -4.94404,-0.19198 -8.064,-0.576 l 2.808,10.08 c -4e-5,0.81601 -1.70404,2.208 -5.112,4.176 -3.84003,0 -11.37602,-3.33599 -22.608,-10.008 0.47999,2.68801 0.76799,5.04001 0.864,7.056 -0.096,0.096 -1.05601,0.576 -2.88,1.44 -1.82401,0.864 -2.85601,1.296 -3.096,1.296 -0.624,0 -0.936,-0.456 -0.936,-1.368 -0.432,-4.55999 -1.056,-8.99999 -1.872,-13.32 -4.896,-3.16798 -9.07199,-6.04798 -12.528,-8.64 -3.45599,-2.63997 -5.18398,-4.24797 -5.184,-4.824 2e-5,-0.76797 1.58401,-2.08797 4.752,-3.96 l 0.216,-0.144 c 3.26401,1.53603 6.48,2.88003 9.648,4.032 -2.736,-10.41596 -4.104,-17.49595 -4.104,-21.239995 0,-1.679952 0.192,-2.99995 0.576,-3.96 0.096,-0.143949 1.152,-0.815949 3.168,-2.016 2.016,-1.199946 3.168,-1.799946 3.456,-1.8 0.192,5.4e-5 0.288,0.168054 0.288,0.504"
         style="font-size:72px"
         id="path2996"
         inkscape:connector-curvature="0" />
      <path
         d="m 252.92404,126.35531 c 0.14399,-0.28798 1.43999,-0.43198 3.888,-0.432 2.49598,2e-5 3.74398,0.36002 3.744,1.08 -2e-5,0.14402 -0.14402,0.43202 -0.432,0.864 -1.68002,2.30402 -2.52001,4.70402 -2.52,7.2 -10e-6,2.49601 0.57598,4.56001 1.728,6.192 1.19998,1.58401 2.71198,2.37601 4.536,2.376 2.97598,1e-5 5.99997,-2.11199 9.072,-6.336 l 0.504,0.864 c -3.74403,5.95201 -7.87202,8.928 -12.384,8.928 -3.40801,0 -6.02401,-1.752 -7.848,-5.256 -0.76801,1.15201 -2.01601,2.23201 -3.744,3.24 -1.728,1.008 -3.36,1.512 -4.896,1.512 -4.176,0 -6.264,-1.752 -6.264,-5.256 0,-2.73599 1.152,-5.59199 3.456,-8.568 2.352,-3.02398 4.656,-4.53598 6.912,-4.536 0.19199,2e-5 0.28799,0.072 0.288,0.216 -1e-5,0.14402 -0.096,0.31202 -0.288,0.504 -1.008,0.52802 -1.872,1.63202 -2.592,3.312 -0.672,1.63202 -1.008,3.31201 -1.008,5.04 0,3.50401 1.344,5.25601 4.032,5.256 0.76799,1e-5 1.48799,-0.19199 2.16,-0.576 0.71999,-0.43199 1.15199,-1.03199 1.296,-1.8 -0.62401,-1.67999 -0.93601,-3.43199 -0.936,-5.256 -1e-5,-1.82398 0.072,-3.35998 0.216,-4.608 0.38399,-2.63998 0.74399,-3.95998 1.08,-3.96"
         style="font-size:72px"
         id="path2998"
         inkscape:connector-curvature="0" />
      <path
         d="m 294.68629,137.29931 0.504,0.864 c -2.01602,3.21601 -4.44002,5.66401 -7.272,7.344 -2.83201,1.728 -5.52001,2.592 -8.064,2.592 -5.136,0 -8.544,-2.208 -10.224,-6.624 10e-6,-0.23999 0.55201,-1.03199 1.656,-2.376 1.104,-1.34399 1.824,-2.01599 2.16,-2.016 0.384,10e-6 0.6,0.12001 0.648,0.36 0.288,1.53601 1.08,3.16801 2.376,4.896 1.344,1.72801 2.568,2.592 3.672,2.592 1.72799,0 2.61599,-0.47999 2.664,-1.44 -10e-6,-1.48799 -1.75201,-3.74399 -5.256,-6.768 -1.296,-1.15199 -2.496,-2.61598 -3.6,-4.392 -1.056,-1.82398 -1.584,-3.69598 -1.584,-5.616 0,-0.38398 0.072,-0.64798 0.216,-0.792 2.112,-1.91997 3.504,-2.87997 4.176,-2.88 0.528,3e-5 0.792,0.40803 0.792,1.224 0.048,1.77602 0.792,3.62402 2.232,5.544 1.48799,1.87202 2.92799,3.67202 4.32,5.4 1.43999,1.72801 2.15999,3.45601 2.16,5.184 -1e-5,1.68001 -0.84001,3.19201 -2.52,4.536 3.93599,-0.096 7.58398,-2.63999 10.944,-7.632"
         style="font-size:72px"
         id="path3000"
         inkscape:connector-curvature="0" />
      <path
         d="m 297.54717,110.51531 c 0.76799,22.56002 4.24799,33.84001 10.44,33.84 2.63998,1e-5 5.80798,-2.35199 9.504,-7.056 l 0.504,0.864 c -4.51202,6.72 -8.83202,10.08 -12.96,10.08 -4.08001,0 -7.39201,-3.12 -9.936,-9.36 -2.544,-6.28798 -3.888,-14.63997 -4.032,-25.056 0,0 -0.34643,-5.07125 0,-4.827 0.096,-3.64796 0.264,-5.22895 0.504,-8.493 0,-0.43195 0.216,-0.71995 0.648,-0.863995 2.88,-1.151954 4.488,-1.727953 4.824,-1.728 0.384,4.7e-5 0.57599,0.216047 0.576,0.648 -0.096,2.400045 -0.14401,4.584045 -0.144,6.551995"
         style="font-size:72px"
         id="path3002"
         inkscape:connector-curvature="0"
         sodipodi:nodetypes="csccscccccccc" />
      <path
         d="m 332.78442,168.97931 c -2e-5,3.98398 1.17598,7.72797 3.528,11.232 2.35198,3.50397 4.53597,5.25596 6.552,5.256 1.72797,-4e-5 2.59197,-1.53603 2.592,-4.608 -3e-5,-2.25603 -0.84003,-5.71203 -2.52,-10.368 -0.62403,-1.72802 -1.56003,-4.29602 -2.808,-7.704 -1.24802,-3.36001 -2.23202,-6.07201 -2.952,-8.136 -2.92802,4.46399 -4.39202,9.23999 -4.392,14.328 m 15.84,5.544 c -3e-5,4.70397 -0.79203,8.20797 -2.376,10.512 -1.58403,2.35196 -3.60003,3.52796 -6.048,3.528 -3.12002,-4e-5 -6.00002,-1.68004 -8.64,-5.04 -2.59201,-3.31203 -3.88801,-7.44003 -3.888,-12.384 0.33599,-3.40802 1.24799,-6.55201 2.736,-9.432 1.53598,-2.88001 3.57598,-5.85601 6.12,-8.928 -1.63202,-4.464 -2.76002,-7.99199 -3.384,-10.584 -2.06402,2.64 -4.44001,3.96 -7.128,3.96 -2.68801,0 -5.04001,-1.36799 -7.056,-4.104 -2.016,-2.73599 -3.024,-6.67199 -3.024,-11.808 0,-0.52798 0.384,-0.88798 1.152,-1.08 2.304,-0.47998 3.62399,-0.71998 3.96,-0.72 0.57599,2e-5 0.86399,0.28802 0.864,0.864 -10e-6,4.36802 0.98399,7.80001 2.952,10.296 1.24799,1.53601 2.80799,2.30401 4.68,2.304 1.00798,1e-5 2.06398,-0.45599 3.168,-1.368 -0.72002,-3.21599 -1.08002,-5.90398 -1.08,-8.064 -2e-5,-2.20798 0.50398,-3.81598 1.512,-4.824 2.06398,-1.19998 3.21598,-1.79998 3.456,-1.8 0.47998,2e-5 0.71998,0.36002 0.72,1.08 -2e-5,5.23202 0.95998,10.75201 2.88,16.56 l 1.224,3.816 c 3.59997,-3.88799 6.33597,-7.22399 8.208,-10.008 l 0.504,0.864 c -1.15203,1.82401 -2.20803,3.31201 -3.168,4.464 -0.96003,1.15201 -1.99203,2.352 -3.096,3.6 -1.05603,1.248 -1.72803,2.04 -2.016,2.376 3.50397,10.03199 5.42397,15.91199 5.76,17.64 0.67197,3.40798 1.00797,6.16798 1.008,8.28"
         style="font-size:72px"
         id="path3004"
         inkscape:connector-curvature="0" />
      <path
         d="m 353.24817,99.139315 c -1e-5,4.608045 2.73599,8.904035 8.208,12.887995 2.54398,-6.52796 3.81598,-11.71195 3.816,-15.551995 -2e-5,-1.67995 -0.55202,-3.239948 -1.656,-4.68 -1.10401,-1.439946 -2.35201,-2.159945 -3.744,-2.16 -1.34401,5.5e-5 -2.56801,0.720054 -3.672,2.16 -1.05601,1.440052 -1.82401,2.88005 -2.304,4.32 -0.43201,1.392047 -0.64801,2.400046 -0.648,3.024 m -9.36,46.943995 c -0.336,0.336 -0.624,0.504 -0.864,0.504 -0.384,0 -0.57599,-0.192 -0.576,-0.576 10e-6,-0.384 0.096,-0.696 0.288,-0.936 2.16,-2.39999 4.704,-6.02399 7.632,-10.872 2.92799,-4.84798 5.61599,-9.88797 8.064,-15.12 -6.144,-4.27197 -9.216,-8.63996 -9.216,-13.104 0,-2.97595 0.696,-5.99995 2.088,-9.071995 1.43999,-3.071949 3.33599,-5.615946 5.688,-7.632 2.39999,-2.015942 4.67999,-3.023941 6.84,-3.024 2.20798,5.9e-5 3.69598,0.528058 4.464,1.584 0.81598,1.008056 1.22398,2.496054 1.224,4.464 -2e-5,3.696049 -2.23202,10.608045 -6.696,20.735995 1.58398,1.05604 3.69598,2.35203 6.336,3.888 2.68798,1.48803 4.96797,2.78403 6.84,3.888 1.91997,1.10403 3.83997,2.37603 5.76,3.816 3.93596,3.02402 5.90396,6.31202 5.904,9.864 -4e-5,3.50401 -1.82404,6.79201 -5.472,9.864 -3.64803,3.024 -7.34403,4.536 -11.088,4.536 -5.90402,0 -11.16001,-3.072 -15.768,-9.216 -0.52801,-0.71999 -0.79201,-1.31999 -0.792,-1.8 -1e-5,-0.52799 0.59999,-1.27199 1.8,-2.232 1.19999,-1.00798 2.13599,-1.51198 2.808,-1.512 0.14399,2e-5 0.26399,0.072 0.36,0.216 1.29599,2.25601 3.62398,4.65601 6.984,7.2 3.35998,2.54401 6.64797,3.816 9.864,3.816 3.98397,-0.288 5.97597,-2.25599 5.976,-5.904 -3e-5,-3.07199 -1.75203,-5.95198 -5.256,-8.64 -2.59203,-1.96798 -5.78402,-4.03198 -9.576,-6.192 -3.79202,-2.20797 -6.40801,-3.79197 -7.848,-4.752 -5.80801,12.19202 -11.064,20.92801 -15.768,26.208"
         style="font-size:72px"
         id="path3006"
         inkscape:connector-curvature="0" />
      <path
         d="m 405.29629,127.93931 c -10e-6,-1.43998 -0.91201,-2.15998 -2.736,-2.16 -1.82401,2e-5 -3.336,0.81602 -4.536,2.448 -1.2,1.63202 -1.8,3.72002 -1.8,6.264 0,2.49601 0.96,4.77601 2.88,6.84 1.96799,2.01601 4.89599,3.02401 8.784,3.024 2.44798,1e-5 4.82398,-0.57599 7.128,-1.728 2.35198,-1.19999 4.34398,-2.97599 5.976,-5.328 l 0.504,0.864 c -1.72802,3.12001 -4.39202,5.54401 -7.992,7.272 -3.55202,1.728 -7.15201,2.592 -10.8,2.592 -3.6,0 -6.552,-0.768 -8.856,-2.304 -2.256,-1.48799 -3.384,-3.64799 -3.384,-6.48 0,-3.59999 1.416,-7.00798 4.248,-10.224 2.88,-3.21598 6.45599,-4.82397 10.728,-4.824 1.48799,3e-5 2.59199,0.38403 3.312,1.152 0.71999,0.72002 1.07999,1.70402 1.08,2.952 -10e-6,1.20002 -0.43201,2.40002 -1.296,3.6 -0.86401,1.15202 -1.84801,1.72802 -2.952,1.728 -0.57601,2e-5 -1.17601,-0.21598 -1.8,-0.648 -0.57601,-0.47998 -0.86401,-0.86398 -0.864,-1.152 -1e-5,-0.33598 0.11999,-0.59998 0.36,-0.792 0.23999,-0.23998 0.52799,-0.45598 0.864,-0.648 0.76799,-0.38398 1.15199,-1.19998 1.152,-2.448"
         style="font-size:72px"
         id="path3008"
         inkscape:connector-curvature="0" />
      <path
         d="m 426.27304,133.33931 -1.368,-0.072 c -0.48,2e-5 -0.816,0.21602 -1.008,0.648 -0.576,1.44001 -1.488,3.07201 -2.736,4.896 l -0.576,-0.792 c 0.96,-1.29599 1.704,-2.92799 2.232,-4.896 0,-0.38398 -0.168,-0.64798 -0.504,-0.792 -2.16,-0.71998 -3.24,-2.61598 -3.24,-5.688 0,-0.67198 0.576,-1.29598 1.728,-1.872 1.152,-0.62397 2.112,-0.93597 2.88,-0.936 0.768,3e-5 1.152,0.33603 1.152,1.008 0,3.60002 1.68,5.40002 5.04,5.4 0.81599,2e-5 1.46399,-0.072 1.944,-0.216 0.52799,-0.19198 0.81599,-0.28798 0.864,-0.288 0.47999,2e-5 0.71999,0.36002 0.72,1.08 -1e-5,0.67202 -0.19201,1.15202 -0.576,1.44 -0.33601,0.24002 -0.72001,0.79202 -1.152,1.656 -0.43201,0.81602 -0.64801,1.77601 -0.648,2.88 -10e-6,2.16001 0.62399,3.86401 1.872,5.112 1.29599,1.20001 2.87999,1.80001 4.752,1.8 1.91998,1e-5 3.81598,-0.55199 5.688,-1.656 1.87198,-1.10399 3.50398,-2.68799 4.896,-4.752 l 0.504,0.864 c -1.68002,2.92801 -4.00802,5.28001 -6.984,7.056 -2.97601,1.776 -5.64001,2.664 -7.992,2.664 -4.80001,0 -7.2,-2.184 -7.2,-6.552 0,-0.81599 0.288,-1.91999 0.864,-3.312 0.576,-1.39199 1.152,-2.56799 1.728,-3.528 l 0.864,-1.44 c -1e-5,-0.19198 -0.072,-0.28798 -0.216,-0.288 -1.536,0.38402 -2.712,0.57602 -3.528,0.576"
         style="font-size:72px"
         id="path3010"
         inkscape:connector-curvature="0" />
      <path
         d="m 448.15429,129.09131 c -0.24,2.01602 -0.36,3.67202 -0.36,4.968 0,4.56001 0.864,8.11201 2.592,10.656 1.776,2.496 3.912,3.744 6.408,3.744 2.54399,0 5.06399,-0.888 7.56,-2.664 2.49598,-1.72799 4.82398,-4.27199 6.984,-7.632 l -0.504,-0.864 c -3.74402,5.13601 -7.20001,7.704 -10.368,7.704 -2.01601,0 -3.64801,-1.07999 -4.896,-3.24 -1.248,-2.15999 -1.872,-5.08799 -1.872,-8.784 0,-1.91998 0.168,-3.86398 0.504,-5.832 0,-0.43198 -0.192,-0.64798 -0.576,-0.648 -0.336,2e-5 -1.944,0.57602 -4.824,1.728 -0.432,0.14402 -0.648,0.43202 -0.648,0.864 m 5.976,-15.48 c 0.768,0.81604 1.152,1.80003 1.152,2.952 0,1.15203 -0.384,2.13603 -1.152,2.952 -0.72,0.81603 -1.608,1.22403 -2.664,1.224 -1.008,3e-5 -1.872,-0.40797 -2.592,-1.224 -0.72,-0.81597 -1.08,-1.79997 -1.08,-2.952 0,-1.15197 0.36,-2.13596 1.08,-2.952 0.72,-0.81596 1.584,-1.22396 2.592,-1.224 1.056,4e-5 1.944,0.40804 2.664,1.224"
         style="font-size:72px"
         id="path3012"
         inkscape:connector-curvature="0" />
      <path
         d="m 485.05429,131.61131 c -0.57601,2e-5 -0.86401,0.57602 -0.864,1.728 -1e-5,1.15202 0.45599,2.52001 1.368,4.104 0.95999,1.53601 2.15999,2.76001 3.6,3.672 0.048,-0.23999 0.072,-0.59999 0.072,-1.08 -2e-5,-2.11199 -0.40802,-4.03199 -1.224,-5.76 -0.81601,-1.77598 -1.80001,-2.66398 -2.952,-2.664 m -13.464,-24.912 c 0,9.60003 1.104,17.76003 3.312,24.48 2.16,-5.90398 3.24,-13.79997 3.24,-23.688 0,-4.27195 -0.264,-7.79995 -0.792,-10.583995 -0.528,-2.783949 -1.248,-4.175948 -2.16,-4.176 -1.2,5.2e-5 -2.112,1.296051 -2.736,3.888 -0.576,2.544046 -0.864,5.904045 -0.864,10.079995 m 11.448,-6.839995 c -1e-5,4.704045 -0.81601,10.320035 -2.448,16.847995 -1.58401,6.52803 -3.312,11.83202 -5.184,15.912 1.488,4.22401 3.192,7.48801 5.112,9.792 1.91999,2.25601 3.67199,3.384 5.256,3.384 1.58399,0 2.63999,-0.984 3.168,-2.952 -2.16001,-0.95999 -4.00801,-2.49599 -5.544,-4.608 -1.48801,-2.11199 -2.23201,-4.22398 -2.232,-6.336 -1e-5,-1.10398 0.26399,-1.99198 0.792,-2.664 0.52799,-0.67198 1.29599,-1.00798 2.304,-1.008 2.49599,2e-5 4.41598,0.96002 5.76,2.88 1.39198,1.87202 2.08798,4.12801 2.088,6.768 -2e-5,1.48801 -0.24002,2.90401 -0.72,4.248 0.47998,0.14401 1.03198,0.21601 1.656,0.216 2.63998,10e-6 4.99198,-1.67999 7.056,-5.04 l 0.576,0.72 c -2.16002,3.69601 -4.87202,5.54401 -8.136,5.544 -0.38402,1e-5 -0.96002,-0.048 -1.728,-0.144 -1.68002,3.12 -4.22401,4.68 -7.632,4.68 -3.93601,0 -7.536,-2.352 -10.8,-7.056 -1.584,-2.35199 -2.856,-5.56799 -3.816,-9.648 -1.00799,-4.12798 -1.51199,-8.71197 -1.512,-13.752 1e-5,-5.03996 0.43201,-9.59996 1.296,-13.68 0.816,-4.07995 2.064,-7.439947 3.744,-10.079995 1.68,-2.639946 3.6,-3.959945 5.76,-3.96 3.45599,5.5e-5 5.18399,3.312052 5.184,9.936"
         style="font-size:72px"
         id="path3014"
         inkscape:connector-curvature="0" />
      <path
         d="m 507.60829,123.90731 0.072,-0.936 c 0,-0.57597 -0.648,-0.86397 -1.944,-0.864 -1.296,3e-5 -2.472,0.38403 -3.528,1.152 -1.008,0.76803 -1.512,1.80002 -1.512,3.096 0,2.30402 1.656,3.45602 4.968,3.456 0.528,2e-5 1.056,-0.072 1.584,-0.216 0.576,-0.19198 1.15199,-0.28798 1.728,-0.288 0.57599,2e-5 0.86399,0.19202 0.864,0.576 -10e-6,0.048 -0.19201,0.16802 -0.576,0.36 -0.38401,0.14402 -0.86401,0.38402 -1.44,0.72 -0.528,0.33602 -1.08,0.76802 -1.656,1.296 -1.344,1.24802 -2.016,2.95201 -2.016,5.112 0,2.16001 0.648,3.81601 1.944,4.968 1.296,1.10401 2.97599,1.65601 5.04,1.656 2.06399,1e-5 4.17599,-0.59999 6.336,-1.8 2.15998,-1.19999 3.91198,-2.83199 5.256,-4.896 l 0.504,0.864 c -1.82402,3.16801 -4.36802,5.66401 -7.632,7.488 -3.21601,1.872 -6.16801,2.808 -8.856,2.808 -2.64,0 -4.68,-0.552 -6.12,-1.656 -1.392,-1.104 -2.088,-2.51999 -2.088,-4.248 0,-1.77599 0.432,-3.40799 1.296,-4.896 0.864,-1.48799 1.608,-2.54399 2.232,-3.168 0.672,-0.67198 1.152,-1.12798 1.44,-1.368 0.336,-0.28798 0.504,-0.47998 0.504,-0.576 0,-0.14398 -0.024,-0.21598 -0.072,-0.216 -1.536,0.57602 -3.024,0.86402 -4.464,0.864 -2.54399,2e-5 -3.81599,-1.03198 -3.816,-3.096 10e-6,-2.78398 1.58401,-5.18398 4.752,-7.2 3.168,-2.01597 5.928,-3.02397 8.28,-3.024 2.39999,3e-5 3.59999,0.57603 3.6,1.728 -10e-6,0.72003 -0.38401,1.48803 -1.152,2.304 -0.76801,0.81603 -1.46401,1.22402 -2.088,1.224 -0.96001,2e-5 -1.44,-0.40797 -1.44,-1.224"
         style="font-size:72px"
         id="path3016"
         inkscape:connector-curvature="0" />
    </g>
    <text
       xml:space="preserve"
       style="font-size:40px;font-style:normal;font-variant:normal;font-weight:normal;font-stretch:normal;line-height:125%;letter-spacing:0px;word-spacing:0px;fill:#000000;fill-opacity:1;stroke:none;font-family:Mr Bedfort;-inkscape-font-specification:Mr Bedfort"
       x="280.36783"
       y="13.975874"
       id="text3571"
       sodipodi:linespacing="125%"><tspan
         sodipodi:role="line"
         id="tspan3573"
         x="280.36783"
         y="13.975874" /></text>
    <path
       style="fill:#000000;fill-rule:evenodd;stroke:none"
       d="m 276.75,111.61218 c -0.062,-0.10605 0.47322,-0.57025 1.59549,-1.30986 1.12227,-0.73962 2.83517,-1.74928 5.14912,-2.87634 2.31396,-1.12705 5.23317,-2.36484 8.72928,-3.58292 3.49612,-1.21809 7.57288,-2.41014 12.10282,-3.56665 5.29159,-1.356964 11.2593,-2.645671 17.8127,-3.77833 6.5534,-1.13266 13.69274,-2.107799 21.29668,-2.923166 13.6861,-1.469306 28.92628,-2.380741 45.12695,-2.564811 7.48334,-0.08532 15.17519,-0.01986 23.01544,0.228726 7.83331,0.248363 15.50876,0.670338 22.96757,1.249471 14.91973,1.157298 28.99799,2.958036 41.70319,5.435636 6.10413,1.18678 11.93104,2.505454 17.3507,4.046354 5.41967,1.54091 10.43231,3.30315 14.96468,5.26335 4.14424,1.78957 7.90575,3.80773 11.05901,6.10879 1.44224,1.04451 2.77287,2.17198 3.91991,3.37075 1.14705,1.19877 2.11104,2.4686 2.86463,3.78536 0.74331,1.30732 1.24741,2.66357 1.51149,3.98591 0.29531,1.49422 0.27601,2.91397 0.0749,4.17543 0,0 0,0 0,1e-5 -0.26193,1.58879 -0.76778,2.89966 -1.3013,3.97778 -0.53351,1.07811 -1.09803,1.92407 -1.58629,2.57643 -0.97652,1.30472 -1.62582,1.85533 -1.73197,1.77308 -0.10615,-0.0822 0.33329,-0.80192 1.06412,-2.19564 0.36541,-0.69686 0.79857,-1.56559 1.19128,-2.61631 0.39271,-1.05072 0.74828,-2.28418 0.85293,-3.69974 0,0 0,0 0,0 0.0889,-1.11521 0.017,-2.34265 -0.31561,-3.58976 -0.29254,-1.10785 -0.79826,-2.24089 -1.50136,-3.34044 -0.71275,-1.12323 -1.6256,-2.20112 -2.71732,-3.22876 -1.09172,-1.02764 -2.36285,-2.00485 -3.74912,-2.9432 -3.04492,-2.044 -6.68511,-3.81983 -10.75587,-5.43975 -4.4589,-1.77147 -9.38304,-3.35407 -14.72097,-4.73659 -5.33794,-1.38251 -11.09017,-2.56417 -17.1505,-3.64809 -12.5856,-2.243348 -26.52387,-3.873111 -41.33532,-4.948246 -7.40193,-0.536719 -15.0176,-0.935525 -22.79128,-1.181916 -7.78059,-0.246609 -15.41535,-0.331409 -22.84651,-0.284966 -16.08872,0.101187 -31.21046,0.835968 -44.80677,2.057202 -7.55887,0.679961 -14.64536,1.491799 -21.15379,2.44103 -6.50842,0.949236 -12.43928,2.034476 -17.71412,3.174876 -4.52939,0.98465 -8.58945,1.97169 -12.08459,2.97545 -3.49514,1.00376 -6.42931,2.01807 -8.78769,2.92513 -2.35838,0.90706 -4.14502,1.70014 -5.36478,2.22749 -1.21977,0.52735 -1.87573,0.78328 -1.93773,0.67723 z"
       id="path3613"
       inkscape:path-effect="#path-effect3615"
       inkscape:original-d="M 523.375,136.98718 C 559.96543,89.767541 331.70398,79.484611 276.75,111.61218"
       inkscape:connector-curvature="0"
       sodipodi:nodetypes="cc" />
  </g>
</svg>
