<svg xmlns="http://www.w3.org/2000/svg" width="350.755" height="102.312"><g font-family="Mr Bedfort" font-size="72" font-weight="400" letter-spacing="0" style="line-height:125%;-inkscape-font-specification:Mr Bedfort" word-spacing="0"><path d="m17.352 44.784-1.296-5.616c-3.552-1.2-7.2-2.52-10.944-3.96-.048 0-.072.024-.072.072.048 1.008 4.152 4.176 12.312 9.504m6.12-3.24c.96 4.224 1.56 6.96 1.8 8.208 11.424 6.96 18.744 10.464 21.96 10.512l-3.888-13.896c-6.432-1.248-13.056-2.856-19.872-4.824M18 4.752l-.288 4.608c0 4.464 1.512 13.32 4.536 26.568 6.24 1.92 12.792 3.576 19.656 4.968-1.968-7.44-3.408-13.848-4.32-19.224-.912-5.424-1.368-11.208-1.368-17.352.096-.528 1.032-1.368 2.808-2.52C40.848.6 42.144 0 42.912 0c.384 0 .576.264.576.792l-.36 5.04c0 7.776 2.016 19.872 6.048 36.288 5.664.864 10.944 1.368 15.84 1.512.336 0 .504.168.504.504 0 .288-1.056 1.008-3.168 2.16-2.112 1.152-3.36 1.728-3.744 1.728-2.256 0-4.944-.192-8.064-.576l2.808 10.08c0 .816-1.704 2.208-5.112 4.176-3.84 0-11.376-3.336-22.608-10.008.48 2.688.768 5.04.864 7.056-.096.096-1.056.576-2.88 1.44-1.824.864-2.856 1.296-3.096 1.296-.624 0-.936-.456-.936-1.368-.432-4.56-1.056-9-1.872-13.32-4.896-3.168-9.072-6.048-12.528-8.64C1.728 35.52 0 33.912 0 33.336c0-.768 1.584-2.088 4.752-3.96l.216-.144c3.264 1.536 6.48 2.88 9.648 4.032-2.736-10.416-4.104-17.496-4.104-21.24 0-1.68.192-3 .576-3.96.096-.144 1.152-.816 3.168-2.016 2.016-1.2 3.168-1.8 3.456-1.8.192 0 .288.168.288.504M78.01 40.104c.144-.288 1.44-.432 3.888-.432 2.496 0 3.744.36 3.744 1.08 0 .144-.144.432-.432.864-1.68 2.304-2.52 4.704-2.52 7.2 0 2.496.576 4.56 1.728 6.192 1.2 1.584 2.712 2.376 4.536 2.376 2.976 0 6-2.112 9.072-6.336l.504.864c-3.744 5.952-7.872 8.928-12.384 8.928-3.408 0-6.024-1.752-7.848-5.256-.768 1.152-2.016 2.232-3.744 3.24-1.728 1.008-3.36 1.512-4.896 1.512-4.176 0-6.264-1.752-6.264-5.256 0-2.736 1.152-5.592 3.456-8.568 2.352-3.024 4.656-4.536 6.912-4.536.192 0 .288.072.288.216 0 .144-.096.312-.288.504-1.008.528-1.872 1.632-2.592 3.312a13.12 13.12 0 0 0-1.008 5.04c0 3.504 1.344 5.256 4.032 5.256.768 0 1.488-.192 2.16-.576.72-.432 1.152-1.032 1.296-1.8a14.973 14.973 0 0 1-.936-5.256c0-1.824.072-3.36.216-4.608.384-2.64.744-3.96 1.08-3.96"/><path d="m119.772 51.048.504.864c-2.016 3.216-4.44 5.664-7.272 7.344-2.832 1.728-5.52 2.592-8.064 2.592-5.136 0-8.544-2.208-10.224-6.624 0-.24.552-1.032 1.656-2.376 1.104-1.344 1.824-2.016 2.16-2.016.384 0 .6.12.648.36.288 1.536 1.08 3.168 2.376 4.896 1.344 1.728 2.568 2.592 3.672 2.592 1.728 0 2.616-.48 2.664-1.44 0-1.488-1.752-3.744-5.256-6.768-1.296-1.152-2.496-2.616-3.6-4.392-1.056-1.824-1.584-3.696-1.584-5.616 0-.384.072-.648.216-.792 2.112-1.92 3.504-2.88 4.176-2.88.528 0 .792.408.792 1.224.048 1.776.792 3.624 2.232 5.544 1.488 1.872 2.928 3.672 4.32 5.4 1.44 1.728 2.16 3.456 2.16 5.184 0 1.68-.84 3.192-2.52 4.536 3.936-.096 7.584-2.64 10.944-7.632"/><path d="M122.633 24.264c.768 22.56 4.248 33.84 10.44 33.84 2.64 0 5.808-2.352 9.504-7.056l.504.864c-4.512 6.72-8.832 10.08-12.96 10.08-4.08 0-7.392-3.12-9.936-9.36-2.544-6.288-3.888-14.64-4.032-25.056 0 0-.347-5.071 0-4.827.096-3.648.264-5.229.504-8.493 0-.432.216-.72.648-.864 2.88-1.152 4.488-1.728 4.824-1.728.384 0 .576.216.576.648a165.13 165.13 0 0 0-.144 6.552"/><path d="M157.87 82.728c0 3.984 1.176 7.728 3.528 11.232 2.352 3.504 4.536 5.256 6.552 5.256 1.728 0 2.592-1.536 2.592-4.608 0-2.256-.84-5.712-2.52-10.368a1998.05 1998.05 0 0 0-2.808-7.704 452.798 452.798 0 0 1-2.952-8.136c-2.928 4.464-4.392 9.24-4.392 14.328m15.84 5.544c0 4.704-.792 8.208-2.376 10.512-1.584 2.352-3.6 3.528-6.048 3.528-3.12 0-6-1.68-8.64-5.04-2.592-3.312-3.888-7.44-3.888-12.384.336-3.408 1.248-6.552 2.736-9.432 1.536-2.88 3.576-5.856 6.12-8.928-1.632-4.464-2.76-7.992-3.384-10.584-2.064 2.64-4.44 3.96-7.128 3.96-2.688 0-5.04-1.368-7.056-4.104-2.016-2.736-3.024-6.672-3.024-11.808 0-.528.384-.888 1.152-1.08 2.304-.48 3.624-.72 3.96-.72.576 0 .864.288.864.864 0 4.368.984 7.8 2.952 10.296 1.248 1.536 2.808 2.304 4.68 2.304 1.008 0 2.064-.456 3.168-1.368-.72-3.216-1.08-5.904-1.08-8.064 0-2.208.504-3.816 1.512-4.824 2.064-1.2 3.216-1.8 3.456-1.8.48 0 .72.36.72 1.08 0 5.232.96 10.752 2.88 16.56l1.224 3.816c3.6-3.888 6.336-7.224 8.208-10.008l.504.864c-1.152 1.824-2.208 3.312-3.168 4.464a161.359 161.359 0 0 1-3.096 3.6 676.433 676.433 0 0 1-2.016 2.376c3.504 10.032 5.424 15.912 5.76 17.64.672 3.408 1.008 6.168 1.008 8.28"/><path d="M178.334 12.888c0 4.608 2.736 8.904 8.208 12.888 2.544-6.528 3.816-11.712 3.816-15.552 0-1.68-.552-3.24-1.656-4.68-1.104-1.44-2.352-2.16-3.744-2.16-1.344 0-2.568.72-3.672 2.16-1.056 1.44-1.824 2.88-2.304 4.32-.432 1.392-.648 2.4-.648 3.024m-9.36 46.944c-.336.336-.624.504-.864.504-.384 0-.576-.192-.576-.576 0-.384.096-.696.288-.936 2.16-2.4 4.704-6.024 7.632-10.872a162.099 162.099 0 0 0 8.064-15.12c-6.144-4.272-9.216-8.64-9.216-13.104 0-2.976.696-6 2.088-9.072 1.44-3.072 3.336-5.616 5.688-7.632 2.4-2.016 4.68-3.024 6.84-3.024 2.208 0 3.696.528 4.464 1.584.816 1.008 1.224 2.496 1.224 4.464 0 3.696-2.232 10.608-6.696 20.736 1.584 1.056 3.696 2.352 6.336 3.888a295.464 295.464 0 0 1 6.84 3.888 56.857 56.857 0 0 1 5.76 3.816c3.936 3.024 5.904 6.312 5.904 9.864 0 3.504-1.824 6.792-5.472 9.864-3.648 3.024-7.344 4.536-11.088 4.536-5.904 0-11.16-3.072-15.768-9.216-.528-.72-.792-1.32-.792-1.8 0-.528.6-1.272 1.8-2.232 1.2-1.008 2.136-1.512 2.808-1.512.144 0 .264.072.36.216 1.296 2.256 3.624 4.656 6.984 7.2 3.36 2.544 6.648 3.816 9.864 3.816 3.984-.288 5.976-2.256 5.976-5.904 0-3.072-1.752-5.952-5.256-8.64-2.592-1.968-5.784-4.032-9.576-6.192-3.792-2.208-6.408-3.792-7.848-4.752-5.808 12.192-11.064 20.928-15.768 26.208M230.382 41.688c0-1.44-.912-2.16-2.736-2.16-1.824 0-3.336.816-4.536 2.448-1.2 1.632-1.8 3.72-1.8 6.264 0 2.496.96 4.776 2.88 6.84 1.968 2.016 4.896 3.024 8.784 3.024 2.448 0 4.824-.576 7.128-1.728 2.352-1.2 4.344-2.976 5.976-5.328l.504.864c-1.728 3.12-4.392 5.544-7.992 7.272-3.552 1.728-7.152 2.592-10.8 2.592-3.6 0-6.552-.768-8.856-2.304-2.256-1.488-3.384-3.648-3.384-6.48 0-3.6 1.416-7.008 4.248-10.224 2.88-3.216 6.456-4.824 10.728-4.824 1.488 0 2.592.384 3.312 1.152.72.72 1.08 1.704 1.08 2.952 0 1.2-.432 2.4-1.296 3.6-.864 1.152-1.848 1.728-2.952 1.728-.576 0-1.176-.216-1.8-.648-.576-.48-.864-.864-.864-1.152 0-.336.12-.6.36-.792.24-.24.528-.456.864-.648.768-.384 1.152-1.2 1.152-2.448"/><path d="m251.359 47.088-1.368-.072c-.48 0-.816.216-1.008.648-.576 1.44-1.488 3.072-2.736 4.896l-.576-.792c.96-1.296 1.704-2.928 2.232-4.896 0-.384-.168-.648-.504-.792-2.16-.72-3.24-2.616-3.24-5.688 0-.672.576-1.296 1.728-1.872 1.152-.624 2.112-.936 2.88-.936.768 0 1.152.336 1.152 1.008 0 3.6 1.68 5.4 5.04 5.4.816 0 1.464-.072 1.944-.216.528-.192.816-.288.864-.288.48 0 .72.36.72 1.08 0 .672-.192 1.152-.576 1.44-.336.24-.72.792-1.152 1.656-.432.816-.648 1.776-.648 2.88 0 2.16.624 3.864 1.872 5.112 1.296 1.2 2.88 1.8 4.752 1.8 1.92 0 3.816-.552 5.688-1.656 1.872-1.104 3.504-2.688 4.896-4.752l.504.864c-1.68 2.928-4.008 5.28-6.984 7.056-2.976 1.776-5.64 2.664-7.992 2.664-4.8 0-7.2-2.184-7.2-6.552 0-.816.288-1.92.864-3.312.576-1.392 1.152-2.568 1.728-3.528l.864-1.44c0-.192-.072-.288-.216-.288-1.536.384-2.712.576-3.528.576"/><path d="M273.24 42.84c-.24 2.016-.36 3.672-.36 4.968 0 4.56.864 8.112 2.592 10.656 1.776 2.496 3.912 3.744 6.408 3.744 2.544 0 5.064-.888 7.56-2.664 2.496-1.728 4.824-4.272 6.984-7.632l-.504-.864c-3.744 5.136-7.2 7.704-10.368 7.704-2.016 0-3.648-1.08-4.896-3.24-1.248-2.16-1.872-5.088-1.872-8.784 0-1.92.168-3.864.504-5.832 0-.432-.192-.648-.576-.648-.336 0-1.944.576-4.824 1.728-.432.144-.648.432-.648.864m5.976-15.48c.768.816 1.152 1.8 1.152 2.952s-.384 2.136-1.152 2.952c-.72.816-1.608 1.224-2.664 1.224-1.008 0-1.872-.408-2.592-1.224-.72-.816-1.08-1.8-1.08-2.952s.36-2.136 1.08-2.952c.72-.816 1.584-1.224 2.592-1.224 1.056 0 1.944.408 2.664 1.224"/><path d="M310.14 45.36c-.576 0-.864.576-.864 1.728 0 1.152.456 2.52 1.368 4.104.96 1.536 2.16 2.76 3.6 3.672.048-.24.072-.6.072-1.08 0-2.112-.408-4.032-1.224-5.76-.816-1.776-1.8-2.664-2.952-2.664m-13.464-24.912c0 9.6 1.104 17.76 3.312 24.48 2.16-5.904 3.24-13.8 3.24-23.688 0-4.272-.264-7.8-.792-10.584s-1.248-4.176-2.16-4.176c-1.2 0-2.112 1.296-2.736 3.888-.576 2.544-.864 5.904-.864 10.08m11.448-6.84c0 4.704-.816 10.32-2.448 16.848-1.584 6.528-3.312 11.832-5.184 15.912 1.488 4.224 3.192 7.488 5.112 9.792 1.92 2.256 3.672 3.384 5.256 3.384s2.64-.984 3.168-2.952c-2.16-.96-4.008-2.496-5.544-4.608-1.488-2.112-2.232-4.224-2.232-6.336 0-1.104.264-1.992.792-2.664.528-.672 1.296-1.008 2.304-1.008 2.496 0 4.416.96 5.76 2.88 1.392 1.872 2.088 4.128 2.088 6.768 0 1.488-.24 2.904-.72 4.248.48.144 1.032.216 1.656.216 2.64 0 4.992-1.68 7.056-5.04l.576.72c-2.16 3.696-4.872 5.544-8.136 5.544-.384 0-.96-.048-1.728-.144-1.68 3.12-4.224 4.68-7.632 4.68-3.936 0-7.536-2.352-10.8-7.056-1.584-2.352-2.856-5.568-3.816-9.648-1.008-4.128-1.512-8.712-1.512-13.752 0-5.04.432-9.6 1.296-13.68.816-4.08 2.064-7.44 3.744-10.08 1.68-2.64 3.6-3.96 5.76-3.96 3.456 0 5.184 3.312 5.184 9.936"/><path d="m332.694 37.656.072-.936c0-.576-.648-.864-1.944-.864a5.858 5.858 0 0 0-3.528 1.152c-1.008.768-1.512 1.8-1.512 3.096 0 2.304 1.656 3.456 4.968 3.456.528 0 1.056-.072 1.584-.216a5.437 5.437 0 0 1 1.728-.288c.576 0 .864.192.864.576 0 .048-.192.168-.576.36-.384.144-.864.384-1.44.72-.528.336-1.08.768-1.656 1.296-1.344 1.248-2.016 2.952-2.016 5.112s.648 3.816 1.944 4.968c1.296 1.104 2.976 1.656 5.04 1.656s4.176-.6 6.336-1.8a14.695 14.695 0 0 0 5.256-4.896l.504.864c-1.824 3.168-4.368 5.664-7.632 7.488-3.216 1.872-6.168 2.808-8.856 2.808-2.64 0-4.68-.552-6.12-1.656-1.392-1.104-2.088-2.52-2.088-4.248 0-1.776.432-3.408 1.296-4.896.864-1.488 1.608-2.544 2.232-3.168.672-.672 1.152-1.128 1.44-1.368.336-.288.504-.48.504-.576 0-.144-.024-.216-.072-.216-1.536.576-3.024.864-4.464.864-2.544 0-3.816-1.032-3.816-3.096 0-2.784 1.584-5.184 4.752-7.2 3.168-2.016 5.928-3.024 8.28-3.024 2.4 0 3.6.576 3.6 1.728 0 .72-.384 1.488-1.152 2.304-.768.816-1.464 1.224-2.088 1.224-.96 0-1.44-.408-1.44-1.224"/></g><text xml:space="preserve" x="280.368" y="13.976" font-family="Mr Bedfort" font-size="40" font-weight="400" letter-spacing="0" style="line-height:125%;-inkscape-font-specification:Mr Bedfort" transform="translate(-177.39 -82.362)" word-spacing="0"/><path fill-rule="evenodd" d="M99.36 29.25c-.061-.106.474-.57 1.596-1.31 1.123-.74 2.835-1.75 5.15-2.876 2.313-1.127 5.233-2.365 8.729-3.583 3.496-1.218 7.573-2.41 12.103-3.567 5.291-1.357 11.259-2.645 17.812-3.778 6.554-1.133 13.693-2.108 21.297-2.923 13.686-1.47 28.926-2.381 45.127-2.565 7.483-.085 15.175-.02 23.015.229 7.834.248 15.51.67 22.968 1.25 14.92 1.156 28.998 2.957 41.703 5.435 6.104 1.186 11.931 2.505 17.35 4.046 5.42 1.541 10.433 3.303 14.965 5.263 4.145 1.79 7.906 3.808 11.06 6.11 1.442 1.044 2.772 2.171 3.92 3.37 1.146 1.199 2.11 2.469 2.864 3.785a13.434 13.434 0 0 1 1.512 3.986c.295 1.494.276 2.914.074 4.176a14.011 14.011 0 0 1-1.3 3.977 16.406 16.406 0 0 1-1.587 2.577c-.977 1.305-1.626 1.855-1.732 1.773-.106-.082.333-.802 1.064-2.196a22.47 22.47 0 0 0 1.191-2.616c.393-1.05.749-2.284.853-3.7a10.664 10.664 0 0 0-.315-3.59c-.293-1.107-.799-2.24-1.502-3.34-.713-1.123-1.625-2.201-2.717-3.229-1.092-1.027-2.363-2.005-3.75-2.943-3.044-2.044-6.684-3.82-10.755-5.44-4.459-1.771-9.383-3.354-14.721-4.736-5.338-1.383-11.09-2.564-17.15-3.648-12.586-2.244-26.524-3.873-41.336-4.949a561.489 561.489 0 0 0-22.791-1.181 602.786 602.786 0 0 0-22.847-.285c-16.088.1-31.21.836-44.806 2.057-7.56.68-14.646 1.492-21.154 2.44-6.509.95-12.44 2.035-17.714 3.176-4.53.984-8.59 1.971-12.085 2.975a106.17 106.17 0 0 0-8.788 2.925c-2.358.907-4.145 1.7-5.364 2.228-1.22.527-1.876.783-1.938.677z"/></svg>
