<svg xmlns="http://www.w3.org/2000/svg" viewBox="0 0 350.76 102.31"><path d="M42.91 0c-.77 0-2.06.6-3.89 1.8-1.77 1.15-2.7 2-2.8 2.52 0 6.14.45 11.93 1.36 17.35.92 5.38 2.36 11.79 4.32 19.23a206.16 206.16 0 0 1-19.65-4.97c-3.03-13.25-4.54-22.1-4.54-26.57l.29-4.6c0-.34-.1-.51-.29-.51-.28 0-1.44.6-3.45 1.8a27.23 27.23 0 0 0-3.17 2.01c-.39.96-.58 2.28-.58 3.96 0 3.75 1.37 10.83 4.1 21.24a114.86 114.86 0 0 1-9.64-4.03C3.16 30.4 1 31.38 0 33.33c0 .58 1.73 2.19 5.18 4.83 3.46 2.6 7.64 5.47 12.53 8.64a145.82 145.82 0 0 1 1.87 13.32c0 .91.32 1.37.94 1.37.54 0 5.82-2.58 5.98-2.74-.1-2.01-.39-4.37-.87-7.05 11.24 6.67 18.77 10 22.61 10 3.4-1.96 5.11-3.36 5.11-4.17l-2.8-10.08c3.12.38 5.8.57 8.06.57.75 0 6.91-3.26 6.91-3.88 0-1.07-2.87.03-16.34-2.02-4.04-16.42-6.05-28.51-6.05-36.29L43.49.8c0-.52-.2-.79-.58-.79Zm146 0c-6.35 0-14.6 9.52-14.6 19.73 0 4.46 3.06 8.83 9.2 13.1-5.84 12.53-13.64 24.6-17.12 27.85l-1.1-3.44a52.78 52.78 0 0 1-2.88-16.56c0-.72-.24-1.08-.72-1.08-.24 0-1.4.6-3.46 1.8-1 1-1.51 2.62-1.51 4.83 0 2.16.36 4.84 1.08 8.06a5.08 5.08 0 0 1-3.17 1.37 5.8 5.8 0 0 1-4.68-2.3c-1.97-2.5-2.95-5.93-2.95-10.3 0-.58-.29-.87-.86-.87-.34 0-1.66.24-3.97.72-.76.2-1.15.55-1.15 1.08 0 2.97.35 5.53 1.03 7.7-3.47 4.26-6.47 6.41-8.98 6.41-9.3 0-10.33-25.6-10.5-39.24 0-2.18.04-4.37.14-6.55 0-.43-.2-.65-.58-.65-.34 0-1.94.58-4.82 1.73-.44.15-.65.43-.65.87-.24 3.26-.41 4.84-.5 8.49-.05-.03-.76 16.64 3.49 28.47-3.33 4.88-6.93 7.37-10.82 7.46 1.68-1.34 2.52-2.85 2.52-4.54 0-1.72-.72-3.45-2.16-5.18a1063.07 1063.07 0 0 1-4.32-5.4c-1.44-1.92-2.18-3.77-2.23-5.54 0-.82-.27-1.23-.8-1.23-.67 0-2.06.96-4.17 2.88-.15.15-.22.41-.22.8 0 1.91.53 3.79 1.59 5.61 1.1 1.78 2.3 3.24 3.6 4.4 3.5 3.02 5.25 5.27 5.25 6.76-.04.96-.93 1.44-2.66 1.44-1.1 0-2.33-.86-3.67-2.6a12.05 12.05 0 0 1-2.38-4.89c-.05-.24-.26-.36-.65-.36-1.54 0-3.8 6.56-9.58 6.56-3.66 0-6.26-3.4-6.26-8.57 0-2.5.84-4.9 2.52-7.2.29-.44.43-.72.43-.87 0-1.6-7.39-1.13-7.63-.65-.34 0-.7 1.32-1.08 3.96a41.23 41.23 0 0 0-.21 4.61 14.97 14.97 0 0 0 .93 5.26 2.6 2.6 0 0 1-1.3 1.8c-1.19.68-6.19 1.97-6.19-4.68 0-1.73.35-3.45 1.01-5.04 1.47-3.44 2.88-3.05 2.88-3.82 0-.14-.1-.21-.29-.21-2.25 0-4.56 1.5-6.91 4.53-2.3 2.98-3.46 5.83-3.46 8.57 0 3.5 2.1 5.26 6.27 5.26 1.53 0 3.17-.5 4.9-1.52 1.72-1 2.97-2.08 3.74-3.24 1.82 3.5 4.44 5.26 7.85 5.26 3.2 0 6.22-1.54 9.04-4.55 1.8 3.7 5.05 5.56 9.75 5.56 2.54 0 5.23-.87 8.06-2.6a21.53 21.53 0 0 0 7.04-6.98c2.07 5.25 5.24 9.72 10.08 9.72 3.94 0 8.04-3.06 12.33-9.16.46 1.17 3.07 7.07 8.65 7.07 2.69 0 5.07-1.32 7.13-3.96.62 2.6 1.75 6.12 3.38 10.59a54.02 54.02 0 0 0-6.12 8.92c-4.54 8.8-2.72 16.87 1.16 21.82 2.64 3.36 5.52 5.04 8.64 5.04 2.44 0 4.46-1.18 6.04-3.53 1.59-2.3 2.38-5.8 2.38-10.5 0-2.12-.34-4.88-1-8.29-.34-1.73-2.26-7.6-5.77-17.64 7.38-8.37 12.38-17.34 17.8-28.73 7.29 5.66 21.95 8.93 22.68 19.59 0 3.64-2 5.61-5.97 5.9-7.85 0-15.23-8.2-16.85-11.01-.1-.15-.22-.22-.36-.22-1.35 0-4.6 2.7-4.6 3.74 0 1.03 6.16 11.02 16.55 11.02 3.74 0 7.44-1.51 11.09-4.54 3.65-3.07 5.47-6.36 5.47-9.86 0-3.55-1.97-6.84-5.9-9.86-5.88-4.44-12.18-7.09-18.94-11.6 4.46-10.13 6.7-17.04 6.7-20.73 0-1.97-.41-3.46-1.23-4.47C192.62.53 191.13 0 188.92 0Zm-3.95 3.38c2.88 0 5.4 3.53 5.4 6.84 0 3.84-1.27 9.03-3.82 15.55-5.47-3.98-8.36-8.48-8.2-12.88.09-2.72 1.42-5.15 2.94-7.35 1.1-1.44 2.33-2.16 3.68-2.16zm117.98.3c-2.16 0-4.08 1.31-5.76 3.95-1.68 2.64-2.93 6-3.74 10.08a66.24 66.24 0 0 0-1.3 13.68c0 5.04.5 9.63 1.51 13.75a37.42 37.42 0 0 0 2 6.26c-3.64 4.9-7 7.35-10.1 7.35-6.53 0-6.77-10.49-6.77-12.02 0-1.92.17-3.87.5-5.83 0-.44-.18-.65-.57-.65-.33 0-1.94.57-4.82 1.73-.43.14-.65.43-.65.86-.49 4.1-.42 6.38-.16 8.54-3.15 4.47-7.18 6.07-10.35 6.07-3.1 0-6.62-1.83-6.62-6.9 0-1.1.22-2.07.65-2.88 1.18-2.37 1.73-1.55 1.73-3.1 0-.72-.24-1.08-.72-1.08-.36 0-.7.5-2.81.5-3.36 0-5.04-1.8-5.04-5.4 0-.67-.38-1-1.15-1-1.23 0-4.61 1.3-4.61 2.8 0 3.07 1.08 4.97 3.24 5.69.33.14.5.4.5.8a15.26 15.26 0 0 1-1.79 4.23c-2.47 3.26-6.07 7-13.14 7-11.44 0-11.66-9.16-11.66-9.87 0-5.27 2.77-8.71 6.34-8.71 1.82 0 2.73.72 2.73 2.16.18 2.52-2.37 2.51-2.37 3.89 0 .55 1.3 1.8 2.66 1.8 3.32 0 5.71-5.74 3.17-8.28-.72-.77-1.83-1.16-3.32-1.16-9.57 0-14.97 8.75-14.97 15.05 0 6.92 7.04 8.78 12.24 8.78 3.65 0 7.25-.86 10.8-2.59a21.7 21.7 0 0 0 10.4-11.52c.18-.43.52-.64 1-.64 1.66.2 3.28-.13 4.9-.5.84 0-3.24 5.2-3.24 8.56 0 4.37 2.4 6.55 7.2 6.55 2.35 0 5.01-.89 7.99-2.66a19.35 19.35 0 0 0 6.46-6.2 14.74 14.74 0 0 0 2.17 5.7c1.78 2.5 3.91 3.74 6.41 3.74 2.54 0 5.06-.89 7.56-2.67a25.96 25.96 0 0 0 6.67-7.16c.42.88.87 1.7 1.36 2.41 3.26 4.7 6.86 7.06 10.8 7.06 3.4 0 5.95-1.56 7.63-4.68 3.02.53 5.74-.55 7.89-2.7-.11.59-.17 1.2-.17 1.83 0 2.74 1.96 5.9 8.21 5.9 4.2 0 12.3-3.01 16.49-10.29l-.5-.86a14.7 14.7 0 0 1-5.26 4.9 13 13 0 0 1-6.34 1.8c-3.17 0-6.98-1.44-6.98-6.63 0-4.77 3.74-6.61 5.11-7.13.38-.19.58-.3.58-.36 0-.38-.3-.57-.87-.57-1.43 0-1.8.5-3.31.5-3.31 0-4.97-1.15-4.97-3.46 0-3.15 3.15-4.26 5.04-4.25 1.3 0 1.95.3 1.95.87l-.08.94c0 .81.49 1.22 1.45 1.22 1.24 0 3.23-2.02 3.23-3.53 0-1.15-1.2-1.73-3.6-1.73-2.35 0-5.1 1.01-8.28 3.03-3.16 2.01-4.75 4.41-4.75 7.2 0 2.06 1.28 3.1 3.82 3.1 1.44 0 2.93-.3 4.46-.87.18.36-.19.52-.43.8-.29.23-.77.69-1.44 1.36a18.4 18.4 0 0 0-2.36 3.4c-3.32 4.98-6.78 4.7-8.31 4.23.48-1.34.72-2.76.72-4.25 0-2.64-.7-4.9-2.1-6.77-2.3-3.29-6.71-3.58-8.05-1.87-1.24 1.57-1.25 5.2 1.44 9a13.7 13.7 0 0 0 5.54 4.61c-.53 1.97-1.59 2.95-3.17 2.95s-3.34-1.12-5.26-3.38c-1.92-2.3-3.62-5.57-5.1-9.8 1.86-4.07 3.6-9.38 5.18-15.9 1.63-6.53 2.44-12.15 2.44-16.85 0-6.63-1.73-9.94-5.18-9.94zm-2.67 2.8c.92 0 1.64 1.4 2.16 4.18a58 58 0 0 1 .8 10.58c0 9.89-1.08 17.78-3.24 23.69-2.21-6.72-3.31-14.88-3.31-24.48 0-4.18.28-7.54.86-10.08.62-2.6 1.53-3.89 2.73-3.89zm-23.72 19.66c-2.02 0-3.67 1.83-3.67 4.17 0 2.35 1.66 4.18 3.67 4.18 2.16 0 3.82-1.95 3.82-4.18 0-2.22-1.65-4.17-3.82-4.17zM5.11 35.2a281.64 281.64 0 0 0 10.95 3.96l1.3 5.61c-8.17-5.33-12.27-8.5-12.32-9.5Zm18.36 6.33a228.89 228.89 0 0 0 19.87 4.83l3.9 13.9c-3.22-.05-10.55-3.56-21.97-10.52-.24-1.25-.84-3.98-1.8-8.2zm286.67 3.82c1.15 0 2.14.89 2.95 2.66a13.3 13.3 0 0 1 1.15 6.84 11.45 11.45 0 0 1-3.6-3.67c-.9-1.58-1.37-2.95-1.37-4.1 0-1.32.39-1.73.87-1.73zM162.26 68.4a452.71 452.71 0 0 0 2.95 8.13c1.88 5.94 5.1 11.75 5.33 18.08 0 3.07-.86 4.6-2.6 4.6-2 0-4.2-1.74-6.54-5.25a19.79 19.79 0 0 1-3.53-11.23c0-5.09 1.46-9.87 4.4-14.33z"/><path fill-rule="evenodd" d="M99.4 29.3C104 24 121 19.4 127 17.9c5-1.4 20-4.8 39-6.7 23-2.35 44-3 68-2.32 8 .25 16 .67 23 1.22 28 2.2 43 5.5 59 9.5 16 4.1 45 15.8 31 34.1-3 3.9-1 .4 0-1.3 9-12.8-7-24.4-31-30.1-33-7.8-65-8.8-82-9.2-16-.5-41-.6-68 1.7-16 1.6-27 3.2-38 5.6-10 1.5-20 4.5-28.6 8.9z"/></svg>